G04 #@! TF.GenerationSoftware,KiCad,Pcbnew,(5.1.4)-1*
G04 #@! TF.CreationDate,2023-05-28T14:22:49-07:00*
G04 #@! TF.ProjectId,keypad,6b657970-6164-42e6-9b69-6361645f7063,rev?*
G04 #@! TF.SameCoordinates,Original*
G04 #@! TF.FileFunction,Copper,L1,Top*
G04 #@! TF.FilePolarity,Positive*
%FSLAX46Y46*%
G04 Gerber Fmt 4.6, Leading zero omitted, Abs format (unit mm)*
G04 Created by KiCad (PCBNEW (5.1.4)-1) date 2023-05-28 14:22:49*
%MOMM*%
%LPD*%
G04 APERTURE LIST*
%ADD10O,1.700000X2.700000*%
%ADD11C,0.800000*%
%ADD12C,0.381000*%
%ADD13C,0.254000*%
G04 APERTURE END LIST*
D10*
X164625000Y-104243750D03*
X171925000Y-104243750D03*
X171925000Y-108743750D03*
X164625000Y-108743750D03*
D11*
X175768000Y-128576000D03*
X193040000Y-117475000D03*
X183261000Y-114300000D03*
X175768000Y-118364000D03*
X191262000Y-133477000D03*
X180213000Y-133477000D03*
X200025000Y-113919000D03*
X200025000Y-123190000D03*
X219075000Y-113792000D03*
X219075000Y-123190000D03*
X238125000Y-113792000D03*
X238125000Y-123063000D03*
X205105000Y-120396000D03*
X214757000Y-120396000D03*
X175768000Y-133477000D03*
X177673000Y-115316000D03*
D12*
X190119000Y-114300000D02*
X191008000Y-115189000D01*
X191008000Y-115189000D02*
X192913000Y-115189000D01*
X192913000Y-115189000D02*
X193040000Y-115316000D01*
X193040000Y-115316000D02*
X193040000Y-117475000D01*
X183515000Y-114300000D02*
X183261000Y-114300000D01*
X183515000Y-114300000D02*
X190119000Y-114300000D01*
X175768000Y-114300000D02*
X183515000Y-114300000D01*
X175768000Y-118364000D02*
X175768000Y-114300000D01*
X175768000Y-128576000D02*
X175768000Y-118364000D01*
X191262000Y-133477000D02*
X180213000Y-133477000D01*
D13*
X200025000Y-113919000D02*
X200025000Y-123190000D01*
X219075000Y-113792000D02*
X219075000Y-123190000D01*
X238125000Y-113792000D02*
X238125000Y-123063000D01*
X205105000Y-120396000D02*
X214757000Y-120396000D01*
X175768000Y-133477000D02*
X177673000Y-131572000D01*
X177673000Y-131572000D02*
X177673000Y-115316000D01*
M02*
