M48
; DRILL file {KiCad (5.1.4)-1} date 6/3/2023 1:44:25 PM
; FORMAT={-:-/ absolute / inch / decimal}
; #@! TF.CreationDate,2023-06-03T13:44:25-07:00
; #@! TF.GenerationSoftware,Kicad,Pcbnew,(5.1.4)-1
; #@! TF.FileFunction,NonPlated,1,2,NPTH
FMAT,2
INCH
T1C0.0689
T2C0.1181
T3C0.1570
%
G90
G05
T1
X7.9562Y-5.1562
X7.9562Y-4.4062
X9.4562Y-5.1562
X9.8562Y-5.1562
X8.7062Y-4.4062
X9.1062Y-4.4062
X8.3562Y-5.1562
X8.7062Y-5.1562
X9.1062Y-5.1562
X9.4562Y-4.4062
X9.8562Y-4.4062
X8.3562Y-4.4062
T2
X9.5062Y-5.0562
X9.7562Y-4.9562
X8.7562Y-4.3062
X9.0062Y-4.2062
X8.0062Y-5.0562
X8.2562Y-4.9562
X8.7562Y-5.0562
X9.0062Y-4.9562
X9.5062Y-4.3062
X9.7562Y-4.2062
X8.0062Y-4.3062
X8.2562Y-4.2062
T3
X9.6562Y-5.1562
X8.9062Y-4.4062
X8.1562Y-5.1562
X8.9062Y-5.1562
X9.6562Y-4.4062
X8.1562Y-4.4062
T0
M30
