M48
; DRILL file {KiCad (5.1.4)-1} date 5/30/2023 4:11:33 PM
; FORMAT={-:-/ absolute / inch / decimal}
; #@! TF.CreationDate,2023-05-30T16:11:33-07:00
; #@! TF.GenerationSoftware,Kicad,Pcbnew,(5.1.4)-1
; #@! TF.FileFunction,Plated,1,2,PTH
FMAT,2
INCH
T1C0.0157
T2C0.0276
%
G90
G05
T1
X6.92Y-4.66
X6.92Y-5.062
X6.92Y-5.255
X6.995Y-4.54
X7.095Y-5.255
X7.215Y-4.5
X7.53Y-5.255
X7.6Y-4.625
X7.875Y-4.485
X7.875Y-4.85
X8.075Y-4.74
X8.455Y-4.74
X8.625Y-4.48
X8.625Y-4.85
X9.375Y-4.48
X9.375Y-4.845
T2
G00X6.4813Y-4.0805
M15
G01X6.4813Y-4.1277
M16
G05
G00X6.4813Y-4.2576
M15
G01X6.4813Y-4.3049
M16
G05
G00X6.7687Y-4.0805
M15
G01X6.7687Y-4.1277
M16
G05
G00X6.7687Y-4.2576
M15
G01X6.7687Y-4.3049
M16
G05
T0
M30
