G04 #@! TF.GenerationSoftware,KiCad,Pcbnew,(5.1.4)-1*
G04 #@! TF.CreationDate,2023-05-30T16:43:03-07:00*
G04 #@! TF.ProjectId,keypad,6b657970-6164-42e6-9b69-6361645f7063,rev?*
G04 #@! TF.SameCoordinates,Original*
G04 #@! TF.FileFunction,Soldermask,Top*
G04 #@! TF.FilePolarity,Negative*
%FSLAX46Y46*%
G04 Gerber Fmt 4.6, Leading zero omitted, Abs format (unit mm)*
G04 Created by KiCad (PCBNEW (5.1.4)-1) date 2023-05-30 16:43:03*
%MOMM*%
%LPD*%
G04 APERTURE LIST*
%ADD10C,0.100000*%
G04 APERTURE END LIST*
D10*
G36*
X245865224Y-129002434D02*
G01*
X246083224Y-129092733D01*
X246237373Y-129156583D01*
X246572298Y-129380373D01*
X246857127Y-129665202D01*
X247080917Y-130000127D01*
X247113312Y-130078336D01*
X247235066Y-130372276D01*
X247313650Y-130767344D01*
X247313650Y-131170156D01*
X247235066Y-131565224D01*
X247184201Y-131688022D01*
X247080917Y-131937373D01*
X246857127Y-132272298D01*
X246572298Y-132557127D01*
X246237373Y-132780917D01*
X246083224Y-132844767D01*
X245865224Y-132935066D01*
X245470156Y-133013650D01*
X245067344Y-133013650D01*
X244672276Y-132935066D01*
X244454276Y-132844767D01*
X244300127Y-132780917D01*
X243965202Y-132557127D01*
X243680373Y-132272298D01*
X243456583Y-131937373D01*
X243353299Y-131688022D01*
X243302434Y-131565224D01*
X243223850Y-131170156D01*
X243223850Y-130767344D01*
X243302434Y-130372276D01*
X243424188Y-130078336D01*
X243456583Y-130000127D01*
X243680373Y-129665202D01*
X243965202Y-129380373D01*
X244300127Y-129156583D01*
X244454276Y-129092733D01*
X244672276Y-129002434D01*
X245067344Y-128923850D01*
X245470156Y-128923850D01*
X245865224Y-129002434D01*
X245865224Y-129002434D01*
G37*
G36*
X207765224Y-129002434D02*
G01*
X207983224Y-129092733D01*
X208137373Y-129156583D01*
X208472298Y-129380373D01*
X208757127Y-129665202D01*
X208980917Y-130000127D01*
X209013312Y-130078336D01*
X209135066Y-130372276D01*
X209213650Y-130767344D01*
X209213650Y-131170156D01*
X209135066Y-131565224D01*
X209084201Y-131688022D01*
X208980917Y-131937373D01*
X208757127Y-132272298D01*
X208472298Y-132557127D01*
X208137373Y-132780917D01*
X207983224Y-132844767D01*
X207765224Y-132935066D01*
X207370156Y-133013650D01*
X206967344Y-133013650D01*
X206572276Y-132935066D01*
X206354276Y-132844767D01*
X206200127Y-132780917D01*
X205865202Y-132557127D01*
X205580373Y-132272298D01*
X205356583Y-131937373D01*
X205253299Y-131688022D01*
X205202434Y-131565224D01*
X205123850Y-131170156D01*
X205123850Y-130767344D01*
X205202434Y-130372276D01*
X205324188Y-130078336D01*
X205356583Y-130000127D01*
X205580373Y-129665202D01*
X205865202Y-129380373D01*
X206200127Y-129156583D01*
X206354276Y-129092733D01*
X206572276Y-129002434D01*
X206967344Y-128923850D01*
X207370156Y-128923850D01*
X207765224Y-129002434D01*
X207765224Y-129002434D01*
G37*
G36*
X226815224Y-129002434D02*
G01*
X227033224Y-129092733D01*
X227187373Y-129156583D01*
X227522298Y-129380373D01*
X227807127Y-129665202D01*
X228030917Y-130000127D01*
X228063312Y-130078336D01*
X228185066Y-130372276D01*
X228263650Y-130767344D01*
X228263650Y-131170156D01*
X228185066Y-131565224D01*
X228134201Y-131688022D01*
X228030917Y-131937373D01*
X227807127Y-132272298D01*
X227522298Y-132557127D01*
X227187373Y-132780917D01*
X227033224Y-132844767D01*
X226815224Y-132935066D01*
X226420156Y-133013650D01*
X226017344Y-133013650D01*
X225622276Y-132935066D01*
X225404276Y-132844767D01*
X225250127Y-132780917D01*
X224915202Y-132557127D01*
X224630373Y-132272298D01*
X224406583Y-131937373D01*
X224303299Y-131688022D01*
X224252434Y-131565224D01*
X224173850Y-131170156D01*
X224173850Y-130767344D01*
X224252434Y-130372276D01*
X224374188Y-130078336D01*
X224406583Y-130000127D01*
X224630373Y-129665202D01*
X224915202Y-129380373D01*
X225250127Y-129156583D01*
X225404276Y-129092733D01*
X225622276Y-129002434D01*
X226017344Y-128923850D01*
X226420156Y-128923850D01*
X226815224Y-129002434D01*
X226815224Y-129002434D01*
G37*
G36*
X221408854Y-130078335D02*
G01*
X221577376Y-130148139D01*
X221729041Y-130249478D01*
X221858022Y-130378459D01*
X221959361Y-130530124D01*
X222029165Y-130698646D01*
X222064750Y-130877547D01*
X222064750Y-131059953D01*
X222029165Y-131238854D01*
X221959361Y-131407376D01*
X221858022Y-131559041D01*
X221729041Y-131688022D01*
X221577376Y-131789361D01*
X221408854Y-131859165D01*
X221229953Y-131894750D01*
X221047547Y-131894750D01*
X220868646Y-131859165D01*
X220700124Y-131789361D01*
X220548459Y-131688022D01*
X220419478Y-131559041D01*
X220318139Y-131407376D01*
X220248335Y-131238854D01*
X220212750Y-131059953D01*
X220212750Y-130877547D01*
X220248335Y-130698646D01*
X220318139Y-130530124D01*
X220419478Y-130378459D01*
X220548459Y-130249478D01*
X220700124Y-130148139D01*
X220868646Y-130078335D01*
X221047547Y-130042750D01*
X221229953Y-130042750D01*
X221408854Y-130078335D01*
X221408854Y-130078335D01*
G37*
G36*
X212518854Y-130078335D02*
G01*
X212687376Y-130148139D01*
X212839041Y-130249478D01*
X212968022Y-130378459D01*
X213069361Y-130530124D01*
X213139165Y-130698646D01*
X213174750Y-130877547D01*
X213174750Y-131059953D01*
X213139165Y-131238854D01*
X213069361Y-131407376D01*
X212968022Y-131559041D01*
X212839041Y-131688022D01*
X212687376Y-131789361D01*
X212518854Y-131859165D01*
X212339953Y-131894750D01*
X212157547Y-131894750D01*
X211978646Y-131859165D01*
X211810124Y-131789361D01*
X211658459Y-131688022D01*
X211529478Y-131559041D01*
X211428139Y-131407376D01*
X211358335Y-131238854D01*
X211322750Y-131059953D01*
X211322750Y-130877547D01*
X211358335Y-130698646D01*
X211428139Y-130530124D01*
X211529478Y-130378459D01*
X211658459Y-130249478D01*
X211810124Y-130148139D01*
X211978646Y-130078335D01*
X212157547Y-130042750D01*
X212339953Y-130042750D01*
X212518854Y-130078335D01*
X212518854Y-130078335D01*
G37*
G36*
X202358854Y-130078335D02*
G01*
X202527376Y-130148139D01*
X202679041Y-130249478D01*
X202808022Y-130378459D01*
X202909361Y-130530124D01*
X202979165Y-130698646D01*
X203014750Y-130877547D01*
X203014750Y-131059953D01*
X202979165Y-131238854D01*
X202909361Y-131407376D01*
X202808022Y-131559041D01*
X202679041Y-131688022D01*
X202527376Y-131789361D01*
X202358854Y-131859165D01*
X202179953Y-131894750D01*
X201997547Y-131894750D01*
X201818646Y-131859165D01*
X201650124Y-131789361D01*
X201498459Y-131688022D01*
X201369478Y-131559041D01*
X201268139Y-131407376D01*
X201198335Y-131238854D01*
X201162750Y-131059953D01*
X201162750Y-130877547D01*
X201198335Y-130698646D01*
X201268139Y-130530124D01*
X201369478Y-130378459D01*
X201498459Y-130249478D01*
X201650124Y-130148139D01*
X201818646Y-130078335D01*
X201997547Y-130042750D01*
X202179953Y-130042750D01*
X202358854Y-130078335D01*
X202358854Y-130078335D01*
G37*
G36*
X231568854Y-130078335D02*
G01*
X231737376Y-130148139D01*
X231889041Y-130249478D01*
X232018022Y-130378459D01*
X232119361Y-130530124D01*
X232189165Y-130698646D01*
X232224750Y-130877547D01*
X232224750Y-131059953D01*
X232189165Y-131238854D01*
X232119361Y-131407376D01*
X232018022Y-131559041D01*
X231889041Y-131688022D01*
X231737376Y-131789361D01*
X231568854Y-131859165D01*
X231389953Y-131894750D01*
X231207547Y-131894750D01*
X231028646Y-131859165D01*
X230860124Y-131789361D01*
X230708459Y-131688022D01*
X230579478Y-131559041D01*
X230478139Y-131407376D01*
X230408335Y-131238854D01*
X230372750Y-131059953D01*
X230372750Y-130877547D01*
X230408335Y-130698646D01*
X230478139Y-130530124D01*
X230579478Y-130378459D01*
X230708459Y-130249478D01*
X230860124Y-130148139D01*
X231028646Y-130078335D01*
X231207547Y-130042750D01*
X231389953Y-130042750D01*
X231568854Y-130078335D01*
X231568854Y-130078335D01*
G37*
G36*
X240458854Y-130078335D02*
G01*
X240627376Y-130148139D01*
X240779041Y-130249478D01*
X240908022Y-130378459D01*
X241009361Y-130530124D01*
X241079165Y-130698646D01*
X241114750Y-130877547D01*
X241114750Y-131059953D01*
X241079165Y-131238854D01*
X241009361Y-131407376D01*
X240908022Y-131559041D01*
X240779041Y-131688022D01*
X240627376Y-131789361D01*
X240458854Y-131859165D01*
X240279953Y-131894750D01*
X240097547Y-131894750D01*
X239918646Y-131859165D01*
X239750124Y-131789361D01*
X239598459Y-131688022D01*
X239469478Y-131559041D01*
X239368139Y-131407376D01*
X239298335Y-131238854D01*
X239262750Y-131059953D01*
X239262750Y-130877547D01*
X239298335Y-130698646D01*
X239368139Y-130530124D01*
X239469478Y-130378459D01*
X239598459Y-130249478D01*
X239750124Y-130148139D01*
X239918646Y-130078335D01*
X240097547Y-130042750D01*
X240279953Y-130042750D01*
X240458854Y-130078335D01*
X240458854Y-130078335D01*
G37*
G36*
X250618854Y-130078335D02*
G01*
X250787376Y-130148139D01*
X250939041Y-130249478D01*
X251068022Y-130378459D01*
X251169361Y-130530124D01*
X251239165Y-130698646D01*
X251274750Y-130877547D01*
X251274750Y-131059953D01*
X251239165Y-131238854D01*
X251169361Y-131407376D01*
X251068022Y-131559041D01*
X250939041Y-131688022D01*
X250787376Y-131789361D01*
X250618854Y-131859165D01*
X250439953Y-131894750D01*
X250257547Y-131894750D01*
X250078646Y-131859165D01*
X249910124Y-131789361D01*
X249758459Y-131688022D01*
X249629478Y-131559041D01*
X249528139Y-131407376D01*
X249458335Y-131238854D01*
X249422750Y-131059953D01*
X249422750Y-130877547D01*
X249458335Y-130698646D01*
X249528139Y-130530124D01*
X249629478Y-130378459D01*
X249758459Y-130249478D01*
X249910124Y-130148139D01*
X250078646Y-130078335D01*
X250257547Y-130042750D01*
X250439953Y-130042750D01*
X250618854Y-130078335D01*
X250618854Y-130078335D01*
G37*
G36*
X222711335Y-126907552D02*
G01*
X222861160Y-126937354D01*
X223143424Y-127054271D01*
X223397455Y-127224009D01*
X223613491Y-127440045D01*
X223783229Y-127694076D01*
X223900146Y-127976340D01*
X223959750Y-128275990D01*
X223959750Y-128581510D01*
X223900146Y-128881160D01*
X223783229Y-129163424D01*
X223613491Y-129417455D01*
X223397455Y-129633491D01*
X223143424Y-129803229D01*
X222861160Y-129920146D01*
X222711335Y-129949948D01*
X222561511Y-129979750D01*
X222255989Y-129979750D01*
X222106165Y-129949948D01*
X221956340Y-129920146D01*
X221674076Y-129803229D01*
X221420045Y-129633491D01*
X221204009Y-129417455D01*
X221034271Y-129163424D01*
X220917354Y-128881160D01*
X220857750Y-128581510D01*
X220857750Y-128275990D01*
X220917354Y-127976340D01*
X221034271Y-127694076D01*
X221204009Y-127440045D01*
X221420045Y-127224009D01*
X221674076Y-127054271D01*
X221956340Y-126937354D01*
X222106165Y-126907552D01*
X222255989Y-126877750D01*
X222561511Y-126877750D01*
X222711335Y-126907552D01*
X222711335Y-126907552D01*
G37*
G36*
X241761335Y-126907552D02*
G01*
X241911160Y-126937354D01*
X242193424Y-127054271D01*
X242447455Y-127224009D01*
X242663491Y-127440045D01*
X242833229Y-127694076D01*
X242950146Y-127976340D01*
X243009750Y-128275990D01*
X243009750Y-128581510D01*
X242950146Y-128881160D01*
X242833229Y-129163424D01*
X242663491Y-129417455D01*
X242447455Y-129633491D01*
X242193424Y-129803229D01*
X241911160Y-129920146D01*
X241761335Y-129949948D01*
X241611511Y-129979750D01*
X241305989Y-129979750D01*
X241156165Y-129949948D01*
X241006340Y-129920146D01*
X240724076Y-129803229D01*
X240470045Y-129633491D01*
X240254009Y-129417455D01*
X240084271Y-129163424D01*
X239967354Y-128881160D01*
X239907750Y-128581510D01*
X239907750Y-128275990D01*
X239967354Y-127976340D01*
X240084271Y-127694076D01*
X240254009Y-127440045D01*
X240470045Y-127224009D01*
X240724076Y-127054271D01*
X241006340Y-126937354D01*
X241156165Y-126907552D01*
X241305989Y-126877750D01*
X241611511Y-126877750D01*
X241761335Y-126907552D01*
X241761335Y-126907552D01*
G37*
G36*
X203661335Y-126907552D02*
G01*
X203811160Y-126937354D01*
X204093424Y-127054271D01*
X204347455Y-127224009D01*
X204563491Y-127440045D01*
X204733229Y-127694076D01*
X204850146Y-127976340D01*
X204909750Y-128275990D01*
X204909750Y-128581510D01*
X204850146Y-128881160D01*
X204733229Y-129163424D01*
X204563491Y-129417455D01*
X204347455Y-129633491D01*
X204093424Y-129803229D01*
X203811160Y-129920146D01*
X203661335Y-129949948D01*
X203511511Y-129979750D01*
X203205989Y-129979750D01*
X203056165Y-129949948D01*
X202906340Y-129920146D01*
X202624076Y-129803229D01*
X202370045Y-129633491D01*
X202154009Y-129417455D01*
X201984271Y-129163424D01*
X201867354Y-128881160D01*
X201807750Y-128581510D01*
X201807750Y-128275990D01*
X201867354Y-127976340D01*
X201984271Y-127694076D01*
X202154009Y-127440045D01*
X202370045Y-127224009D01*
X202624076Y-127054271D01*
X202906340Y-126937354D01*
X203056165Y-126907552D01*
X203205989Y-126877750D01*
X203511511Y-126877750D01*
X203661335Y-126907552D01*
X203661335Y-126907552D01*
G37*
G36*
X210011335Y-124367552D02*
G01*
X210161160Y-124397354D01*
X210443424Y-124514271D01*
X210697455Y-124684009D01*
X210913491Y-124900045D01*
X211083229Y-125154076D01*
X211200146Y-125436340D01*
X211259750Y-125735990D01*
X211259750Y-126041510D01*
X211200146Y-126341160D01*
X211083229Y-126623424D01*
X210913491Y-126877455D01*
X210697455Y-127093491D01*
X210443424Y-127263229D01*
X210161160Y-127380146D01*
X210011335Y-127409948D01*
X209861511Y-127439750D01*
X209555989Y-127439750D01*
X209406165Y-127409948D01*
X209256340Y-127380146D01*
X208974076Y-127263229D01*
X208720045Y-127093491D01*
X208504009Y-126877455D01*
X208334271Y-126623424D01*
X208217354Y-126341160D01*
X208157750Y-126041510D01*
X208157750Y-125735990D01*
X208217354Y-125436340D01*
X208334271Y-125154076D01*
X208504009Y-124900045D01*
X208720045Y-124684009D01*
X208974076Y-124514271D01*
X209256340Y-124397354D01*
X209406165Y-124367552D01*
X209555989Y-124337750D01*
X209861511Y-124337750D01*
X210011335Y-124367552D01*
X210011335Y-124367552D01*
G37*
G36*
X229061335Y-124367552D02*
G01*
X229211160Y-124397354D01*
X229493424Y-124514271D01*
X229747455Y-124684009D01*
X229963491Y-124900045D01*
X230133229Y-125154076D01*
X230250146Y-125436340D01*
X230309750Y-125735990D01*
X230309750Y-126041510D01*
X230250146Y-126341160D01*
X230133229Y-126623424D01*
X229963491Y-126877455D01*
X229747455Y-127093491D01*
X229493424Y-127263229D01*
X229211160Y-127380146D01*
X229061335Y-127409948D01*
X228911511Y-127439750D01*
X228605989Y-127439750D01*
X228456165Y-127409948D01*
X228306340Y-127380146D01*
X228024076Y-127263229D01*
X227770045Y-127093491D01*
X227554009Y-126877455D01*
X227384271Y-126623424D01*
X227267354Y-126341160D01*
X227207750Y-126041510D01*
X227207750Y-125735990D01*
X227267354Y-125436340D01*
X227384271Y-125154076D01*
X227554009Y-124900045D01*
X227770045Y-124684009D01*
X228024076Y-124514271D01*
X228306340Y-124397354D01*
X228456165Y-124367552D01*
X228605989Y-124337750D01*
X228911511Y-124337750D01*
X229061335Y-124367552D01*
X229061335Y-124367552D01*
G37*
G36*
X248111335Y-124367552D02*
G01*
X248261160Y-124397354D01*
X248543424Y-124514271D01*
X248797455Y-124684009D01*
X249013491Y-124900045D01*
X249183229Y-125154076D01*
X249300146Y-125436340D01*
X249359750Y-125735990D01*
X249359750Y-126041510D01*
X249300146Y-126341160D01*
X249183229Y-126623424D01*
X249013491Y-126877455D01*
X248797455Y-127093491D01*
X248543424Y-127263229D01*
X248261160Y-127380146D01*
X248111335Y-127409948D01*
X247961511Y-127439750D01*
X247655989Y-127439750D01*
X247506165Y-127409948D01*
X247356340Y-127380146D01*
X247074076Y-127263229D01*
X246820045Y-127093491D01*
X246604009Y-126877455D01*
X246434271Y-126623424D01*
X246317354Y-126341160D01*
X246257750Y-126041510D01*
X246257750Y-125735990D01*
X246317354Y-125436340D01*
X246434271Y-125154076D01*
X246604009Y-124900045D01*
X246820045Y-124684009D01*
X247074076Y-124514271D01*
X247356340Y-124397354D01*
X247506165Y-124367552D01*
X247655989Y-124337750D01*
X247961511Y-124337750D01*
X248111335Y-124367552D01*
X248111335Y-124367552D01*
G37*
G36*
X207765224Y-109952434D02*
G01*
X207983224Y-110042733D01*
X208137373Y-110106583D01*
X208472298Y-110330373D01*
X208757127Y-110615202D01*
X208980917Y-110950127D01*
X209013312Y-111028336D01*
X209135066Y-111322276D01*
X209213650Y-111717344D01*
X209213650Y-112120156D01*
X209135066Y-112515224D01*
X209084201Y-112638022D01*
X208980917Y-112887373D01*
X208757127Y-113222298D01*
X208472298Y-113507127D01*
X208137373Y-113730917D01*
X207983224Y-113794767D01*
X207765224Y-113885066D01*
X207370156Y-113963650D01*
X206967344Y-113963650D01*
X206572276Y-113885066D01*
X206354276Y-113794767D01*
X206200127Y-113730917D01*
X205865202Y-113507127D01*
X205580373Y-113222298D01*
X205356583Y-112887373D01*
X205253299Y-112638022D01*
X205202434Y-112515224D01*
X205123850Y-112120156D01*
X205123850Y-111717344D01*
X205202434Y-111322276D01*
X205324188Y-111028336D01*
X205356583Y-110950127D01*
X205580373Y-110615202D01*
X205865202Y-110330373D01*
X206200127Y-110106583D01*
X206354276Y-110042733D01*
X206572276Y-109952434D01*
X206967344Y-109873850D01*
X207370156Y-109873850D01*
X207765224Y-109952434D01*
X207765224Y-109952434D01*
G37*
G36*
X245865224Y-109952434D02*
G01*
X246083224Y-110042733D01*
X246237373Y-110106583D01*
X246572298Y-110330373D01*
X246857127Y-110615202D01*
X247080917Y-110950127D01*
X247113312Y-111028336D01*
X247235066Y-111322276D01*
X247313650Y-111717344D01*
X247313650Y-112120156D01*
X247235066Y-112515224D01*
X247184201Y-112638022D01*
X247080917Y-112887373D01*
X246857127Y-113222298D01*
X246572298Y-113507127D01*
X246237373Y-113730917D01*
X246083224Y-113794767D01*
X245865224Y-113885066D01*
X245470156Y-113963650D01*
X245067344Y-113963650D01*
X244672276Y-113885066D01*
X244454276Y-113794767D01*
X244300127Y-113730917D01*
X243965202Y-113507127D01*
X243680373Y-113222298D01*
X243456583Y-112887373D01*
X243353299Y-112638022D01*
X243302434Y-112515224D01*
X243223850Y-112120156D01*
X243223850Y-111717344D01*
X243302434Y-111322276D01*
X243424188Y-111028336D01*
X243456583Y-110950127D01*
X243680373Y-110615202D01*
X243965202Y-110330373D01*
X244300127Y-110106583D01*
X244454276Y-110042733D01*
X244672276Y-109952434D01*
X245067344Y-109873850D01*
X245470156Y-109873850D01*
X245865224Y-109952434D01*
X245865224Y-109952434D01*
G37*
G36*
X226815224Y-109952434D02*
G01*
X227033224Y-110042733D01*
X227187373Y-110106583D01*
X227522298Y-110330373D01*
X227807127Y-110615202D01*
X228030917Y-110950127D01*
X228063312Y-111028336D01*
X228185066Y-111322276D01*
X228263650Y-111717344D01*
X228263650Y-112120156D01*
X228185066Y-112515224D01*
X228134201Y-112638022D01*
X228030917Y-112887373D01*
X227807127Y-113222298D01*
X227522298Y-113507127D01*
X227187373Y-113730917D01*
X227033224Y-113794767D01*
X226815224Y-113885066D01*
X226420156Y-113963650D01*
X226017344Y-113963650D01*
X225622276Y-113885066D01*
X225404276Y-113794767D01*
X225250127Y-113730917D01*
X224915202Y-113507127D01*
X224630373Y-113222298D01*
X224406583Y-112887373D01*
X224303299Y-112638022D01*
X224252434Y-112515224D01*
X224173850Y-112120156D01*
X224173850Y-111717344D01*
X224252434Y-111322276D01*
X224374188Y-111028336D01*
X224406583Y-110950127D01*
X224630373Y-110615202D01*
X224915202Y-110330373D01*
X225250127Y-110106583D01*
X225404276Y-110042733D01*
X225622276Y-109952434D01*
X226017344Y-109873850D01*
X226420156Y-109873850D01*
X226815224Y-109952434D01*
X226815224Y-109952434D01*
G37*
G36*
X202358854Y-111028335D02*
G01*
X202527376Y-111098139D01*
X202679041Y-111199478D01*
X202808022Y-111328459D01*
X202909361Y-111480124D01*
X202979165Y-111648646D01*
X203014750Y-111827547D01*
X203014750Y-112009953D01*
X202979165Y-112188854D01*
X202909361Y-112357376D01*
X202808022Y-112509041D01*
X202679041Y-112638022D01*
X202527376Y-112739361D01*
X202358854Y-112809165D01*
X202179953Y-112844750D01*
X201997547Y-112844750D01*
X201818646Y-112809165D01*
X201650124Y-112739361D01*
X201498459Y-112638022D01*
X201369478Y-112509041D01*
X201268139Y-112357376D01*
X201198335Y-112188854D01*
X201162750Y-112009953D01*
X201162750Y-111827547D01*
X201198335Y-111648646D01*
X201268139Y-111480124D01*
X201369478Y-111328459D01*
X201498459Y-111199478D01*
X201650124Y-111098139D01*
X201818646Y-111028335D01*
X201997547Y-110992750D01*
X202179953Y-110992750D01*
X202358854Y-111028335D01*
X202358854Y-111028335D01*
G37*
G36*
X250618854Y-111028335D02*
G01*
X250787376Y-111098139D01*
X250939041Y-111199478D01*
X251068022Y-111328459D01*
X251169361Y-111480124D01*
X251239165Y-111648646D01*
X251274750Y-111827547D01*
X251274750Y-112009953D01*
X251239165Y-112188854D01*
X251169361Y-112357376D01*
X251068022Y-112509041D01*
X250939041Y-112638022D01*
X250787376Y-112739361D01*
X250618854Y-112809165D01*
X250439953Y-112844750D01*
X250257547Y-112844750D01*
X250078646Y-112809165D01*
X249910124Y-112739361D01*
X249758459Y-112638022D01*
X249629478Y-112509041D01*
X249528139Y-112357376D01*
X249458335Y-112188854D01*
X249422750Y-112009953D01*
X249422750Y-111827547D01*
X249458335Y-111648646D01*
X249528139Y-111480124D01*
X249629478Y-111328459D01*
X249758459Y-111199478D01*
X249910124Y-111098139D01*
X250078646Y-111028335D01*
X250257547Y-110992750D01*
X250439953Y-110992750D01*
X250618854Y-111028335D01*
X250618854Y-111028335D01*
G37*
G36*
X221408854Y-111028335D02*
G01*
X221577376Y-111098139D01*
X221729041Y-111199478D01*
X221858022Y-111328459D01*
X221959361Y-111480124D01*
X222029165Y-111648646D01*
X222064750Y-111827547D01*
X222064750Y-112009953D01*
X222029165Y-112188854D01*
X221959361Y-112357376D01*
X221858022Y-112509041D01*
X221729041Y-112638022D01*
X221577376Y-112739361D01*
X221408854Y-112809165D01*
X221229953Y-112844750D01*
X221047547Y-112844750D01*
X220868646Y-112809165D01*
X220700124Y-112739361D01*
X220548459Y-112638022D01*
X220419478Y-112509041D01*
X220318139Y-112357376D01*
X220248335Y-112188854D01*
X220212750Y-112009953D01*
X220212750Y-111827547D01*
X220248335Y-111648646D01*
X220318139Y-111480124D01*
X220419478Y-111328459D01*
X220548459Y-111199478D01*
X220700124Y-111098139D01*
X220868646Y-111028335D01*
X221047547Y-110992750D01*
X221229953Y-110992750D01*
X221408854Y-111028335D01*
X221408854Y-111028335D01*
G37*
G36*
X231568854Y-111028335D02*
G01*
X231737376Y-111098139D01*
X231889041Y-111199478D01*
X232018022Y-111328459D01*
X232119361Y-111480124D01*
X232189165Y-111648646D01*
X232224750Y-111827547D01*
X232224750Y-112009953D01*
X232189165Y-112188854D01*
X232119361Y-112357376D01*
X232018022Y-112509041D01*
X231889041Y-112638022D01*
X231737376Y-112739361D01*
X231568854Y-112809165D01*
X231389953Y-112844750D01*
X231207547Y-112844750D01*
X231028646Y-112809165D01*
X230860124Y-112739361D01*
X230708459Y-112638022D01*
X230579478Y-112509041D01*
X230478139Y-112357376D01*
X230408335Y-112188854D01*
X230372750Y-112009953D01*
X230372750Y-111827547D01*
X230408335Y-111648646D01*
X230478139Y-111480124D01*
X230579478Y-111328459D01*
X230708459Y-111199478D01*
X230860124Y-111098139D01*
X231028646Y-111028335D01*
X231207547Y-110992750D01*
X231389953Y-110992750D01*
X231568854Y-111028335D01*
X231568854Y-111028335D01*
G37*
G36*
X240458854Y-111028335D02*
G01*
X240627376Y-111098139D01*
X240779041Y-111199478D01*
X240908022Y-111328459D01*
X241009361Y-111480124D01*
X241079165Y-111648646D01*
X241114750Y-111827547D01*
X241114750Y-112009953D01*
X241079165Y-112188854D01*
X241009361Y-112357376D01*
X240908022Y-112509041D01*
X240779041Y-112638022D01*
X240627376Y-112739361D01*
X240458854Y-112809165D01*
X240279953Y-112844750D01*
X240097547Y-112844750D01*
X239918646Y-112809165D01*
X239750124Y-112739361D01*
X239598459Y-112638022D01*
X239469478Y-112509041D01*
X239368139Y-112357376D01*
X239298335Y-112188854D01*
X239262750Y-112009953D01*
X239262750Y-111827547D01*
X239298335Y-111648646D01*
X239368139Y-111480124D01*
X239469478Y-111328459D01*
X239598459Y-111199478D01*
X239750124Y-111098139D01*
X239918646Y-111028335D01*
X240097547Y-110992750D01*
X240279953Y-110992750D01*
X240458854Y-111028335D01*
X240458854Y-111028335D01*
G37*
G36*
X212518854Y-111028335D02*
G01*
X212687376Y-111098139D01*
X212839041Y-111199478D01*
X212968022Y-111328459D01*
X213069361Y-111480124D01*
X213139165Y-111648646D01*
X213174750Y-111827547D01*
X213174750Y-112009953D01*
X213139165Y-112188854D01*
X213069361Y-112357376D01*
X212968022Y-112509041D01*
X212839041Y-112638022D01*
X212687376Y-112739361D01*
X212518854Y-112809165D01*
X212339953Y-112844750D01*
X212157547Y-112844750D01*
X211978646Y-112809165D01*
X211810124Y-112739361D01*
X211658459Y-112638022D01*
X211529478Y-112509041D01*
X211428139Y-112357376D01*
X211358335Y-112188854D01*
X211322750Y-112009953D01*
X211322750Y-111827547D01*
X211358335Y-111648646D01*
X211428139Y-111480124D01*
X211529478Y-111328459D01*
X211658459Y-111199478D01*
X211810124Y-111098139D01*
X211978646Y-111028335D01*
X212157547Y-110992750D01*
X212339953Y-110992750D01*
X212518854Y-111028335D01*
X212518854Y-111028335D01*
G37*
G36*
X222711335Y-107857552D02*
G01*
X222861160Y-107887354D01*
X223143424Y-108004271D01*
X223397455Y-108174009D01*
X223613491Y-108390045D01*
X223783229Y-108644076D01*
X223900146Y-108926340D01*
X223900146Y-108926341D01*
X223959750Y-109225989D01*
X223959750Y-109531511D01*
X223948072Y-109590218D01*
X223900146Y-109831160D01*
X223783229Y-110113424D01*
X223613491Y-110367455D01*
X223397455Y-110583491D01*
X223143424Y-110753229D01*
X222861160Y-110870146D01*
X222711335Y-110899948D01*
X222561511Y-110929750D01*
X222255989Y-110929750D01*
X222106165Y-110899948D01*
X221956340Y-110870146D01*
X221674076Y-110753229D01*
X221420045Y-110583491D01*
X221204009Y-110367455D01*
X221034271Y-110113424D01*
X220917354Y-109831160D01*
X220869428Y-109590218D01*
X220857750Y-109531511D01*
X220857750Y-109225989D01*
X220917354Y-108926341D01*
X220917354Y-108926340D01*
X221034271Y-108644076D01*
X221204009Y-108390045D01*
X221420045Y-108174009D01*
X221674076Y-108004271D01*
X221956340Y-107887354D01*
X222106165Y-107857552D01*
X222255989Y-107827750D01*
X222561511Y-107827750D01*
X222711335Y-107857552D01*
X222711335Y-107857552D01*
G37*
G36*
X203661335Y-107857552D02*
G01*
X203811160Y-107887354D01*
X204093424Y-108004271D01*
X204347455Y-108174009D01*
X204563491Y-108390045D01*
X204733229Y-108644076D01*
X204850146Y-108926340D01*
X204850146Y-108926341D01*
X204909750Y-109225989D01*
X204909750Y-109531511D01*
X204898072Y-109590218D01*
X204850146Y-109831160D01*
X204733229Y-110113424D01*
X204563491Y-110367455D01*
X204347455Y-110583491D01*
X204093424Y-110753229D01*
X203811160Y-110870146D01*
X203661335Y-110899948D01*
X203511511Y-110929750D01*
X203205989Y-110929750D01*
X203056165Y-110899948D01*
X202906340Y-110870146D01*
X202624076Y-110753229D01*
X202370045Y-110583491D01*
X202154009Y-110367455D01*
X201984271Y-110113424D01*
X201867354Y-109831160D01*
X201819428Y-109590218D01*
X201807750Y-109531511D01*
X201807750Y-109225989D01*
X201867354Y-108926341D01*
X201867354Y-108926340D01*
X201984271Y-108644076D01*
X202154009Y-108390045D01*
X202370045Y-108174009D01*
X202624076Y-108004271D01*
X202906340Y-107887354D01*
X203056165Y-107857552D01*
X203205989Y-107827750D01*
X203511511Y-107827750D01*
X203661335Y-107857552D01*
X203661335Y-107857552D01*
G37*
G36*
X241761335Y-107857552D02*
G01*
X241911160Y-107887354D01*
X242193424Y-108004271D01*
X242447455Y-108174009D01*
X242663491Y-108390045D01*
X242833229Y-108644076D01*
X242950146Y-108926340D01*
X242950146Y-108926341D01*
X243009750Y-109225989D01*
X243009750Y-109531511D01*
X242998072Y-109590218D01*
X242950146Y-109831160D01*
X242833229Y-110113424D01*
X242663491Y-110367455D01*
X242447455Y-110583491D01*
X242193424Y-110753229D01*
X241911160Y-110870146D01*
X241761335Y-110899948D01*
X241611511Y-110929750D01*
X241305989Y-110929750D01*
X241156165Y-110899948D01*
X241006340Y-110870146D01*
X240724076Y-110753229D01*
X240470045Y-110583491D01*
X240254009Y-110367455D01*
X240084271Y-110113424D01*
X239967354Y-109831160D01*
X239919428Y-109590218D01*
X239907750Y-109531511D01*
X239907750Y-109225989D01*
X239967354Y-108926341D01*
X239967354Y-108926340D01*
X240084271Y-108644076D01*
X240254009Y-108390045D01*
X240470045Y-108174009D01*
X240724076Y-108004271D01*
X241006340Y-107887354D01*
X241156165Y-107857552D01*
X241305989Y-107827750D01*
X241611511Y-107827750D01*
X241761335Y-107857552D01*
X241761335Y-107857552D01*
G37*
G36*
X169089127Y-107355787D02*
G01*
X169258966Y-107407307D01*
X169415491Y-107490972D01*
X169451229Y-107520302D01*
X169552686Y-107603564D01*
X169635948Y-107705021D01*
X169665278Y-107740759D01*
X169748943Y-107897284D01*
X169800463Y-108067123D01*
X169813500Y-108199492D01*
X169813500Y-109288008D01*
X169800463Y-109420377D01*
X169748943Y-109590216D01*
X169665278Y-109746741D01*
X169635948Y-109782479D01*
X169552686Y-109883936D01*
X169415489Y-109996529D01*
X169258967Y-110080192D01*
X169258965Y-110080193D01*
X169089126Y-110131713D01*
X168912500Y-110149109D01*
X168735873Y-110131713D01*
X168566034Y-110080193D01*
X168409509Y-109996528D01*
X168355782Y-109952435D01*
X168272314Y-109883936D01*
X168159721Y-109746739D01*
X168076058Y-109590217D01*
X168076057Y-109590215D01*
X168024537Y-109420376D01*
X168011500Y-109288007D01*
X168011501Y-108199492D01*
X168024538Y-108067123D01*
X168076058Y-107897284D01*
X168159723Y-107740759D01*
X168189053Y-107705021D01*
X168272315Y-107603564D01*
X168373772Y-107520302D01*
X168409510Y-107490972D01*
X168566035Y-107407307D01*
X168735874Y-107355787D01*
X168912500Y-107338391D01*
X169089127Y-107355787D01*
X169089127Y-107355787D01*
G37*
G36*
X176389127Y-107355787D02*
G01*
X176558966Y-107407307D01*
X176715491Y-107490972D01*
X176751229Y-107520302D01*
X176852686Y-107603564D01*
X176935948Y-107705021D01*
X176965278Y-107740759D01*
X177048943Y-107897284D01*
X177100463Y-108067123D01*
X177113500Y-108199492D01*
X177113500Y-109288008D01*
X177100463Y-109420377D01*
X177048943Y-109590216D01*
X176965278Y-109746741D01*
X176935948Y-109782479D01*
X176852686Y-109883936D01*
X176715489Y-109996529D01*
X176558967Y-110080192D01*
X176558965Y-110080193D01*
X176389126Y-110131713D01*
X176212500Y-110149109D01*
X176035873Y-110131713D01*
X175866034Y-110080193D01*
X175709509Y-109996528D01*
X175655782Y-109952435D01*
X175572314Y-109883936D01*
X175459721Y-109746739D01*
X175376058Y-109590217D01*
X175376057Y-109590215D01*
X175324537Y-109420376D01*
X175311500Y-109288007D01*
X175311501Y-108199492D01*
X175324538Y-108067123D01*
X175376058Y-107897284D01*
X175459723Y-107740759D01*
X175489053Y-107705021D01*
X175572315Y-107603564D01*
X175673772Y-107520302D01*
X175709510Y-107490972D01*
X175866035Y-107407307D01*
X176035874Y-107355787D01*
X176212500Y-107338391D01*
X176389127Y-107355787D01*
X176389127Y-107355787D01*
G37*
G36*
X210011335Y-105317552D02*
G01*
X210161160Y-105347354D01*
X210443424Y-105464271D01*
X210697455Y-105634009D01*
X210913491Y-105850045D01*
X211083229Y-106104076D01*
X211200146Y-106386340D01*
X211259750Y-106685990D01*
X211259750Y-106991510D01*
X211200146Y-107291160D01*
X211083229Y-107573424D01*
X210913491Y-107827455D01*
X210697455Y-108043491D01*
X210443424Y-108213229D01*
X210161160Y-108330146D01*
X210011335Y-108359948D01*
X209861511Y-108389750D01*
X209555989Y-108389750D01*
X209406165Y-108359948D01*
X209256340Y-108330146D01*
X208974076Y-108213229D01*
X208720045Y-108043491D01*
X208504009Y-107827455D01*
X208334271Y-107573424D01*
X208217354Y-107291160D01*
X208157750Y-106991510D01*
X208157750Y-106685990D01*
X208217354Y-106386340D01*
X208334271Y-106104076D01*
X208504009Y-105850045D01*
X208720045Y-105634009D01*
X208974076Y-105464271D01*
X209256340Y-105347354D01*
X209406165Y-105317552D01*
X209555989Y-105287750D01*
X209861511Y-105287750D01*
X210011335Y-105317552D01*
X210011335Y-105317552D01*
G37*
G36*
X229061335Y-105317552D02*
G01*
X229211160Y-105347354D01*
X229493424Y-105464271D01*
X229747455Y-105634009D01*
X229963491Y-105850045D01*
X230133229Y-106104076D01*
X230250146Y-106386340D01*
X230309750Y-106685990D01*
X230309750Y-106991510D01*
X230250146Y-107291160D01*
X230133229Y-107573424D01*
X229963491Y-107827455D01*
X229747455Y-108043491D01*
X229493424Y-108213229D01*
X229211160Y-108330146D01*
X229061335Y-108359948D01*
X228911511Y-108389750D01*
X228605989Y-108389750D01*
X228456165Y-108359948D01*
X228306340Y-108330146D01*
X228024076Y-108213229D01*
X227770045Y-108043491D01*
X227554009Y-107827455D01*
X227384271Y-107573424D01*
X227267354Y-107291160D01*
X227207750Y-106991510D01*
X227207750Y-106685990D01*
X227267354Y-106386340D01*
X227384271Y-106104076D01*
X227554009Y-105850045D01*
X227770045Y-105634009D01*
X228024076Y-105464271D01*
X228306340Y-105347354D01*
X228456165Y-105317552D01*
X228605989Y-105287750D01*
X228911511Y-105287750D01*
X229061335Y-105317552D01*
X229061335Y-105317552D01*
G37*
G36*
X248111335Y-105317552D02*
G01*
X248261160Y-105347354D01*
X248543424Y-105464271D01*
X248797455Y-105634009D01*
X249013491Y-105850045D01*
X249183229Y-106104076D01*
X249300146Y-106386340D01*
X249359750Y-106685990D01*
X249359750Y-106991510D01*
X249300146Y-107291160D01*
X249183229Y-107573424D01*
X249013491Y-107827455D01*
X248797455Y-108043491D01*
X248543424Y-108213229D01*
X248261160Y-108330146D01*
X248111335Y-108359948D01*
X247961511Y-108389750D01*
X247655989Y-108389750D01*
X247506165Y-108359948D01*
X247356340Y-108330146D01*
X247074076Y-108213229D01*
X246820045Y-108043491D01*
X246604009Y-107827455D01*
X246434271Y-107573424D01*
X246317354Y-107291160D01*
X246257750Y-106991510D01*
X246257750Y-106685990D01*
X246317354Y-106386340D01*
X246434271Y-106104076D01*
X246604009Y-105850045D01*
X246820045Y-105634009D01*
X247074076Y-105464271D01*
X247356340Y-105347354D01*
X247506165Y-105317552D01*
X247655989Y-105287750D01*
X247961511Y-105287750D01*
X248111335Y-105317552D01*
X248111335Y-105317552D01*
G37*
G36*
X176389127Y-102855787D02*
G01*
X176558966Y-102907307D01*
X176715491Y-102990972D01*
X176751229Y-103020302D01*
X176852686Y-103103564D01*
X176935948Y-103205021D01*
X176965278Y-103240759D01*
X177048943Y-103397284D01*
X177100463Y-103567123D01*
X177113500Y-103699492D01*
X177113500Y-104788008D01*
X177100463Y-104920377D01*
X177048943Y-105090216D01*
X176965278Y-105246741D01*
X176935948Y-105282479D01*
X176852686Y-105383936D01*
X176715489Y-105496529D01*
X176558967Y-105580192D01*
X176558965Y-105580193D01*
X176389126Y-105631713D01*
X176212500Y-105649109D01*
X176035873Y-105631713D01*
X175866034Y-105580193D01*
X175709509Y-105496528D01*
X175670204Y-105464271D01*
X175572314Y-105383936D01*
X175459721Y-105246739D01*
X175376058Y-105090217D01*
X175376057Y-105090215D01*
X175324537Y-104920376D01*
X175311500Y-104788007D01*
X175311501Y-103699492D01*
X175324538Y-103567123D01*
X175376058Y-103397284D01*
X175459723Y-103240759D01*
X175489053Y-103205021D01*
X175572315Y-103103564D01*
X175673772Y-103020302D01*
X175709510Y-102990972D01*
X175866035Y-102907307D01*
X176035874Y-102855787D01*
X176212500Y-102838391D01*
X176389127Y-102855787D01*
X176389127Y-102855787D01*
G37*
G36*
X169089127Y-102855787D02*
G01*
X169258966Y-102907307D01*
X169415491Y-102990972D01*
X169451229Y-103020302D01*
X169552686Y-103103564D01*
X169635948Y-103205021D01*
X169665278Y-103240759D01*
X169748943Y-103397284D01*
X169800463Y-103567123D01*
X169813500Y-103699492D01*
X169813500Y-104788008D01*
X169800463Y-104920377D01*
X169748943Y-105090216D01*
X169665278Y-105246741D01*
X169635948Y-105282479D01*
X169552686Y-105383936D01*
X169415489Y-105496529D01*
X169258967Y-105580192D01*
X169258965Y-105580193D01*
X169089126Y-105631713D01*
X168912500Y-105649109D01*
X168735873Y-105631713D01*
X168566034Y-105580193D01*
X168409509Y-105496528D01*
X168370204Y-105464271D01*
X168272314Y-105383936D01*
X168159721Y-105246739D01*
X168076058Y-105090217D01*
X168076057Y-105090215D01*
X168024537Y-104920376D01*
X168011500Y-104788007D01*
X168011501Y-103699492D01*
X168024538Y-103567123D01*
X168076058Y-103397284D01*
X168159723Y-103240759D01*
X168189053Y-103205021D01*
X168272315Y-103103564D01*
X168373772Y-103020302D01*
X168409510Y-102990972D01*
X168566035Y-102907307D01*
X168735874Y-102855787D01*
X168912500Y-102838391D01*
X169089127Y-102855787D01*
X169089127Y-102855787D01*
G37*
M02*
