G04 #@! TF.GenerationSoftware,KiCad,Pcbnew,(5.1.4)-1*
G04 #@! TF.CreationDate,2023-06-03T13:44:21-07:00*
G04 #@! TF.ProjectId,keypad,6b657970-6164-42e6-9b69-6361645f7063,rev?*
G04 #@! TF.SameCoordinates,Original*
G04 #@! TF.FileFunction,Soldermask,Bot*
G04 #@! TF.FilePolarity,Negative*
%FSLAX46Y46*%
G04 Gerber Fmt 4.6, Leading zero omitted, Abs format (unit mm)*
G04 Created by KiCad (PCBNEW (5.1.4)-1) date 2023-06-03 13:44:21*
%MOMM*%
%LPD*%
G04 APERTURE LIST*
%ADD10C,0.100000*%
G04 APERTURE END LIST*
D10*
G36*
X178751000Y-139507250D02*
G01*
X176849000Y-139507250D01*
X176849000Y-138305250D01*
X178751000Y-138305250D01*
X178751000Y-139507250D01*
X178751000Y-139507250D01*
G37*
G36*
X172551000Y-139507250D02*
G01*
X170649000Y-139507250D01*
X170649000Y-138305250D01*
X172551000Y-138305250D01*
X172551000Y-139507250D01*
X172551000Y-139507250D01*
G37*
G36*
X172551000Y-135807250D02*
G01*
X170649000Y-135807250D01*
X170649000Y-134605250D01*
X172551000Y-134605250D01*
X172551000Y-135807250D01*
X172551000Y-135807250D01*
G37*
G36*
X178751000Y-135807250D02*
G01*
X176849000Y-135807250D01*
X176849000Y-134605250D01*
X178751000Y-134605250D01*
X178751000Y-135807250D01*
X178751000Y-135807250D01*
G37*
G36*
X245865224Y-129002434D02*
G01*
X246083224Y-129092733D01*
X246237373Y-129156583D01*
X246572298Y-129380373D01*
X246857127Y-129665202D01*
X247080917Y-130000127D01*
X247113312Y-130078336D01*
X247235066Y-130372276D01*
X247313650Y-130767344D01*
X247313650Y-131170156D01*
X247235066Y-131565224D01*
X247184201Y-131688022D01*
X247080917Y-131937373D01*
X246857127Y-132272298D01*
X246572298Y-132557127D01*
X246237373Y-132780917D01*
X246109219Y-132834000D01*
X245865224Y-132935066D01*
X245470156Y-133013650D01*
X245067344Y-133013650D01*
X244672276Y-132935066D01*
X244428281Y-132834000D01*
X244300127Y-132780917D01*
X243965202Y-132557127D01*
X243680373Y-132272298D01*
X243456583Y-131937373D01*
X243353299Y-131688022D01*
X243302434Y-131565224D01*
X243223850Y-131170156D01*
X243223850Y-130767344D01*
X243302434Y-130372276D01*
X243424188Y-130078336D01*
X243456583Y-130000127D01*
X243680373Y-129665202D01*
X243965202Y-129380373D01*
X244300127Y-129156583D01*
X244454276Y-129092733D01*
X244672276Y-129002434D01*
X245067344Y-128923850D01*
X245470156Y-128923850D01*
X245865224Y-129002434D01*
X245865224Y-129002434D01*
G37*
G36*
X207765224Y-129002434D02*
G01*
X207983224Y-129092733D01*
X208137373Y-129156583D01*
X208472298Y-129380373D01*
X208757127Y-129665202D01*
X208980917Y-130000127D01*
X209013312Y-130078336D01*
X209135066Y-130372276D01*
X209213650Y-130767344D01*
X209213650Y-131170156D01*
X209135066Y-131565224D01*
X209084201Y-131688022D01*
X208980917Y-131937373D01*
X208757127Y-132272298D01*
X208472298Y-132557127D01*
X208137373Y-132780917D01*
X208009219Y-132834000D01*
X207765224Y-132935066D01*
X207370156Y-133013650D01*
X206967344Y-133013650D01*
X206572276Y-132935066D01*
X206328281Y-132834000D01*
X206200127Y-132780917D01*
X205865202Y-132557127D01*
X205580373Y-132272298D01*
X205356583Y-131937373D01*
X205253299Y-131688022D01*
X205202434Y-131565224D01*
X205123850Y-131170156D01*
X205123850Y-130767344D01*
X205202434Y-130372276D01*
X205324188Y-130078336D01*
X205356583Y-130000127D01*
X205580373Y-129665202D01*
X205865202Y-129380373D01*
X206200127Y-129156583D01*
X206354276Y-129092733D01*
X206572276Y-129002434D01*
X206967344Y-128923850D01*
X207370156Y-128923850D01*
X207765224Y-129002434D01*
X207765224Y-129002434D01*
G37*
G36*
X226815224Y-129002434D02*
G01*
X227033224Y-129092733D01*
X227187373Y-129156583D01*
X227522298Y-129380373D01*
X227807127Y-129665202D01*
X228030917Y-130000127D01*
X228063312Y-130078336D01*
X228185066Y-130372276D01*
X228263650Y-130767344D01*
X228263650Y-131170156D01*
X228185066Y-131565224D01*
X228134201Y-131688022D01*
X228030917Y-131937373D01*
X227807127Y-132272298D01*
X227522298Y-132557127D01*
X227187373Y-132780917D01*
X227059219Y-132834000D01*
X226815224Y-132935066D01*
X226420156Y-133013650D01*
X226017344Y-133013650D01*
X225622276Y-132935066D01*
X225378281Y-132834000D01*
X225250127Y-132780917D01*
X224915202Y-132557127D01*
X224630373Y-132272298D01*
X224406583Y-131937373D01*
X224303299Y-131688022D01*
X224252434Y-131565224D01*
X224173850Y-131170156D01*
X224173850Y-130767344D01*
X224252434Y-130372276D01*
X224374188Y-130078336D01*
X224406583Y-130000127D01*
X224630373Y-129665202D01*
X224915202Y-129380373D01*
X225250127Y-129156583D01*
X225404276Y-129092733D01*
X225622276Y-129002434D01*
X226017344Y-128923850D01*
X226420156Y-128923850D01*
X226815224Y-129002434D01*
X226815224Y-129002434D01*
G37*
G36*
X254143000Y-132834000D02*
G01*
X252841000Y-132834000D01*
X252841000Y-131832000D01*
X254143000Y-131832000D01*
X254143000Y-132834000D01*
X254143000Y-132834000D01*
G37*
G36*
X235093000Y-132834000D02*
G01*
X233791000Y-132834000D01*
X233791000Y-131832000D01*
X235093000Y-131832000D01*
X235093000Y-132834000D01*
X235093000Y-132834000D01*
G37*
G36*
X216043000Y-132834000D02*
G01*
X214741000Y-132834000D01*
X214741000Y-131832000D01*
X216043000Y-131832000D01*
X216043000Y-132834000D01*
X216043000Y-132834000D01*
G37*
G36*
X180614968Y-131079565D02*
G01*
X180653638Y-131091296D01*
X180689277Y-131110346D01*
X180720517Y-131135983D01*
X180746154Y-131167223D01*
X180765204Y-131202862D01*
X180776935Y-131241532D01*
X180781500Y-131287888D01*
X180781500Y-132364112D01*
X180776935Y-132410468D01*
X180765204Y-132449138D01*
X180746154Y-132484777D01*
X180720517Y-132516017D01*
X180689277Y-132541654D01*
X180653638Y-132560704D01*
X180614968Y-132572435D01*
X180568612Y-132577000D01*
X179917388Y-132577000D01*
X179871032Y-132572435D01*
X179832362Y-132560704D01*
X179796723Y-132541654D01*
X179765483Y-132516017D01*
X179739846Y-132484777D01*
X179720796Y-132449138D01*
X179709065Y-132410468D01*
X179704500Y-132364112D01*
X179704500Y-131287888D01*
X179709065Y-131241532D01*
X179720796Y-131202862D01*
X179739846Y-131167223D01*
X179765483Y-131135983D01*
X179796723Y-131110346D01*
X179832362Y-131091296D01*
X179871032Y-131079565D01*
X179917388Y-131075000D01*
X180568612Y-131075000D01*
X180614968Y-131079565D01*
X180614968Y-131079565D01*
G37*
G36*
X190363968Y-131079565D02*
G01*
X190402638Y-131091296D01*
X190438277Y-131110346D01*
X190469517Y-131135983D01*
X190495154Y-131167223D01*
X190514204Y-131202862D01*
X190525935Y-131241532D01*
X190530500Y-131287888D01*
X190530500Y-132364112D01*
X190525935Y-132410468D01*
X190514204Y-132449138D01*
X190495154Y-132484777D01*
X190469517Y-132516017D01*
X190438277Y-132541654D01*
X190402638Y-132560704D01*
X190363968Y-132572435D01*
X190317612Y-132577000D01*
X189666388Y-132577000D01*
X189620032Y-132572435D01*
X189581362Y-132560704D01*
X189545723Y-132541654D01*
X189514483Y-132516017D01*
X189488846Y-132484777D01*
X189469796Y-132449138D01*
X189458065Y-132410468D01*
X189453500Y-132364112D01*
X189453500Y-131287888D01*
X189458065Y-131241532D01*
X189469796Y-131202862D01*
X189488846Y-131167223D01*
X189514483Y-131135983D01*
X189545723Y-131110346D01*
X189581362Y-131091296D01*
X189620032Y-131079565D01*
X189666388Y-131075000D01*
X190317612Y-131075000D01*
X190363968Y-131079565D01*
X190363968Y-131079565D01*
G37*
G36*
X192238968Y-131079565D02*
G01*
X192277638Y-131091296D01*
X192313277Y-131110346D01*
X192344517Y-131135983D01*
X192370154Y-131167223D01*
X192389204Y-131202862D01*
X192400935Y-131241532D01*
X192405500Y-131287888D01*
X192405500Y-132364112D01*
X192400935Y-132410468D01*
X192389204Y-132449138D01*
X192370154Y-132484777D01*
X192344517Y-132516017D01*
X192313277Y-132541654D01*
X192277638Y-132560704D01*
X192238968Y-132572435D01*
X192192612Y-132577000D01*
X191541388Y-132577000D01*
X191495032Y-132572435D01*
X191456362Y-132560704D01*
X191420723Y-132541654D01*
X191389483Y-132516017D01*
X191363846Y-132484777D01*
X191344796Y-132449138D01*
X191333065Y-132410468D01*
X191328500Y-132364112D01*
X191328500Y-131287888D01*
X191333065Y-131241532D01*
X191344796Y-131202862D01*
X191363846Y-131167223D01*
X191389483Y-131135983D01*
X191420723Y-131110346D01*
X191456362Y-131091296D01*
X191495032Y-131079565D01*
X191541388Y-131075000D01*
X192192612Y-131075000D01*
X192238968Y-131079565D01*
X192238968Y-131079565D01*
G37*
G36*
X182489968Y-131079565D02*
G01*
X182528638Y-131091296D01*
X182564277Y-131110346D01*
X182595517Y-131135983D01*
X182621154Y-131167223D01*
X182640204Y-131202862D01*
X182651935Y-131241532D01*
X182656500Y-131287888D01*
X182656500Y-132364112D01*
X182651935Y-132410468D01*
X182640204Y-132449138D01*
X182621154Y-132484777D01*
X182595517Y-132516017D01*
X182564277Y-132541654D01*
X182528638Y-132560704D01*
X182489968Y-132572435D01*
X182443612Y-132577000D01*
X181792388Y-132577000D01*
X181746032Y-132572435D01*
X181707362Y-132560704D01*
X181671723Y-132541654D01*
X181640483Y-132516017D01*
X181614846Y-132484777D01*
X181595796Y-132449138D01*
X181584065Y-132410468D01*
X181579500Y-132364112D01*
X181579500Y-131287888D01*
X181584065Y-131241532D01*
X181595796Y-131202862D01*
X181614846Y-131167223D01*
X181640483Y-131135983D01*
X181671723Y-131110346D01*
X181707362Y-131091296D01*
X181746032Y-131079565D01*
X181792388Y-131075000D01*
X182443612Y-131075000D01*
X182489968Y-131079565D01*
X182489968Y-131079565D01*
G37*
G36*
X240458854Y-130078335D02*
G01*
X240627376Y-130148139D01*
X240779041Y-130249478D01*
X240908022Y-130378459D01*
X241009361Y-130530124D01*
X241079165Y-130698646D01*
X241114750Y-130877547D01*
X241114750Y-131059953D01*
X241079165Y-131238854D01*
X241009361Y-131407376D01*
X240908022Y-131559041D01*
X240779041Y-131688022D01*
X240627376Y-131789361D01*
X240458854Y-131859165D01*
X240279953Y-131894750D01*
X240097547Y-131894750D01*
X239918646Y-131859165D01*
X239750124Y-131789361D01*
X239598459Y-131688022D01*
X239469478Y-131559041D01*
X239368139Y-131407376D01*
X239298335Y-131238854D01*
X239262750Y-131059953D01*
X239262750Y-130877547D01*
X239298335Y-130698646D01*
X239368139Y-130530124D01*
X239469478Y-130378459D01*
X239598459Y-130249478D01*
X239750124Y-130148139D01*
X239918646Y-130078335D01*
X240097547Y-130042750D01*
X240279953Y-130042750D01*
X240458854Y-130078335D01*
X240458854Y-130078335D01*
G37*
G36*
X202358854Y-130078335D02*
G01*
X202527376Y-130148139D01*
X202679041Y-130249478D01*
X202808022Y-130378459D01*
X202909361Y-130530124D01*
X202979165Y-130698646D01*
X203014750Y-130877547D01*
X203014750Y-131059953D01*
X202979165Y-131238854D01*
X202909361Y-131407376D01*
X202808022Y-131559041D01*
X202679041Y-131688022D01*
X202527376Y-131789361D01*
X202358854Y-131859165D01*
X202179953Y-131894750D01*
X201997547Y-131894750D01*
X201818646Y-131859165D01*
X201650124Y-131789361D01*
X201498459Y-131688022D01*
X201369478Y-131559041D01*
X201268139Y-131407376D01*
X201198335Y-131238854D01*
X201162750Y-131059953D01*
X201162750Y-130877547D01*
X201198335Y-130698646D01*
X201268139Y-130530124D01*
X201369478Y-130378459D01*
X201498459Y-130249478D01*
X201650124Y-130148139D01*
X201818646Y-130078335D01*
X201997547Y-130042750D01*
X202179953Y-130042750D01*
X202358854Y-130078335D01*
X202358854Y-130078335D01*
G37*
G36*
X212518854Y-130078335D02*
G01*
X212687376Y-130148139D01*
X212839041Y-130249478D01*
X212968022Y-130378459D01*
X213069361Y-130530124D01*
X213139165Y-130698646D01*
X213174750Y-130877547D01*
X213174750Y-131059953D01*
X213139165Y-131238854D01*
X213069361Y-131407376D01*
X212968022Y-131559041D01*
X212839041Y-131688022D01*
X212687376Y-131789361D01*
X212518854Y-131859165D01*
X212339953Y-131894750D01*
X212157547Y-131894750D01*
X211978646Y-131859165D01*
X211810124Y-131789361D01*
X211658459Y-131688022D01*
X211529478Y-131559041D01*
X211428139Y-131407376D01*
X211358335Y-131238854D01*
X211322750Y-131059953D01*
X211322750Y-130877547D01*
X211358335Y-130698646D01*
X211428139Y-130530124D01*
X211529478Y-130378459D01*
X211658459Y-130249478D01*
X211810124Y-130148139D01*
X211978646Y-130078335D01*
X212157547Y-130042750D01*
X212339953Y-130042750D01*
X212518854Y-130078335D01*
X212518854Y-130078335D01*
G37*
G36*
X221408854Y-130078335D02*
G01*
X221577376Y-130148139D01*
X221729041Y-130249478D01*
X221858022Y-130378459D01*
X221959361Y-130530124D01*
X222029165Y-130698646D01*
X222064750Y-130877547D01*
X222064750Y-131059953D01*
X222029165Y-131238854D01*
X221959361Y-131407376D01*
X221858022Y-131559041D01*
X221729041Y-131688022D01*
X221577376Y-131789361D01*
X221408854Y-131859165D01*
X221229953Y-131894750D01*
X221047547Y-131894750D01*
X220868646Y-131859165D01*
X220700124Y-131789361D01*
X220548459Y-131688022D01*
X220419478Y-131559041D01*
X220318139Y-131407376D01*
X220248335Y-131238854D01*
X220212750Y-131059953D01*
X220212750Y-130877547D01*
X220248335Y-130698646D01*
X220318139Y-130530124D01*
X220419478Y-130378459D01*
X220548459Y-130249478D01*
X220700124Y-130148139D01*
X220868646Y-130078335D01*
X221047547Y-130042750D01*
X221229953Y-130042750D01*
X221408854Y-130078335D01*
X221408854Y-130078335D01*
G37*
G36*
X231568854Y-130078335D02*
G01*
X231737376Y-130148139D01*
X231889041Y-130249478D01*
X232018022Y-130378459D01*
X232119361Y-130530124D01*
X232189165Y-130698646D01*
X232224750Y-130877547D01*
X232224750Y-131059953D01*
X232189165Y-131238854D01*
X232119361Y-131407376D01*
X232018022Y-131559041D01*
X231889041Y-131688022D01*
X231737376Y-131789361D01*
X231568854Y-131859165D01*
X231389953Y-131894750D01*
X231207547Y-131894750D01*
X231028646Y-131859165D01*
X230860124Y-131789361D01*
X230708459Y-131688022D01*
X230579478Y-131559041D01*
X230478139Y-131407376D01*
X230408335Y-131238854D01*
X230372750Y-131059953D01*
X230372750Y-130877547D01*
X230408335Y-130698646D01*
X230478139Y-130530124D01*
X230579478Y-130378459D01*
X230708459Y-130249478D01*
X230860124Y-130148139D01*
X231028646Y-130078335D01*
X231207547Y-130042750D01*
X231389953Y-130042750D01*
X231568854Y-130078335D01*
X231568854Y-130078335D01*
G37*
G36*
X250618854Y-130078335D02*
G01*
X250787376Y-130148139D01*
X250939041Y-130249478D01*
X251068022Y-130378459D01*
X251169361Y-130530124D01*
X251239165Y-130698646D01*
X251274750Y-130877547D01*
X251274750Y-131059953D01*
X251239165Y-131238854D01*
X251169361Y-131407376D01*
X251068022Y-131559041D01*
X250939041Y-131688022D01*
X250787376Y-131789361D01*
X250618854Y-131859165D01*
X250439953Y-131894750D01*
X250257547Y-131894750D01*
X250078646Y-131859165D01*
X249910124Y-131789361D01*
X249758459Y-131688022D01*
X249629478Y-131559041D01*
X249528139Y-131407376D01*
X249458335Y-131238854D01*
X249422750Y-131059953D01*
X249422750Y-130877547D01*
X249458335Y-130698646D01*
X249528139Y-130530124D01*
X249629478Y-130378459D01*
X249758459Y-130249478D01*
X249910124Y-130148139D01*
X250078646Y-130078335D01*
X250257547Y-130042750D01*
X250439953Y-130042750D01*
X250618854Y-130078335D01*
X250618854Y-130078335D01*
G37*
G36*
X203636631Y-126902638D02*
G01*
X203811160Y-126937354D01*
X204093424Y-127054271D01*
X204347455Y-127224009D01*
X204563491Y-127440045D01*
X204733229Y-127694076D01*
X204850146Y-127976340D01*
X204850146Y-127976341D01*
X204909750Y-128275989D01*
X204909750Y-128581511D01*
X204879948Y-128731335D01*
X204850146Y-128881160D01*
X204733229Y-129163424D01*
X204563491Y-129417455D01*
X204347455Y-129633491D01*
X204093424Y-129803229D01*
X203811160Y-129920146D01*
X203661335Y-129949948D01*
X203511511Y-129979750D01*
X203205989Y-129979750D01*
X203056165Y-129949948D01*
X202906340Y-129920146D01*
X202624076Y-129803229D01*
X202370045Y-129633491D01*
X202154009Y-129417455D01*
X201984271Y-129163424D01*
X201867354Y-128881160D01*
X201837552Y-128731335D01*
X201807750Y-128581511D01*
X201807750Y-128275989D01*
X201867354Y-127976341D01*
X201867354Y-127976340D01*
X201984271Y-127694076D01*
X202154009Y-127440045D01*
X202370045Y-127224009D01*
X202624076Y-127054271D01*
X202906340Y-126937354D01*
X203080869Y-126902638D01*
X203205989Y-126877750D01*
X203511511Y-126877750D01*
X203636631Y-126902638D01*
X203636631Y-126902638D01*
G37*
G36*
X241736631Y-126902638D02*
G01*
X241911160Y-126937354D01*
X242193424Y-127054271D01*
X242447455Y-127224009D01*
X242663491Y-127440045D01*
X242833229Y-127694076D01*
X242950146Y-127976340D01*
X242950146Y-127976341D01*
X243009750Y-128275989D01*
X243009750Y-128581511D01*
X242979948Y-128731335D01*
X242950146Y-128881160D01*
X242833229Y-129163424D01*
X242663491Y-129417455D01*
X242447455Y-129633491D01*
X242193424Y-129803229D01*
X241911160Y-129920146D01*
X241761335Y-129949948D01*
X241611511Y-129979750D01*
X241305989Y-129979750D01*
X241156165Y-129949948D01*
X241006340Y-129920146D01*
X240724076Y-129803229D01*
X240470045Y-129633491D01*
X240254009Y-129417455D01*
X240084271Y-129163424D01*
X239967354Y-128881160D01*
X239937552Y-128731335D01*
X239907750Y-128581511D01*
X239907750Y-128275989D01*
X239967354Y-127976341D01*
X239967354Y-127976340D01*
X240084271Y-127694076D01*
X240254009Y-127440045D01*
X240470045Y-127224009D01*
X240724076Y-127054271D01*
X241006340Y-126937354D01*
X241180869Y-126902638D01*
X241305989Y-126877750D01*
X241611511Y-126877750D01*
X241736631Y-126902638D01*
X241736631Y-126902638D01*
G37*
G36*
X222686631Y-126902638D02*
G01*
X222861160Y-126937354D01*
X223143424Y-127054271D01*
X223397455Y-127224009D01*
X223613491Y-127440045D01*
X223783229Y-127694076D01*
X223900146Y-127976340D01*
X223900146Y-127976341D01*
X223959750Y-128275989D01*
X223959750Y-128581511D01*
X223929948Y-128731335D01*
X223900146Y-128881160D01*
X223783229Y-129163424D01*
X223613491Y-129417455D01*
X223397455Y-129633491D01*
X223143424Y-129803229D01*
X222861160Y-129920146D01*
X222711335Y-129949948D01*
X222561511Y-129979750D01*
X222255989Y-129979750D01*
X222106165Y-129949948D01*
X221956340Y-129920146D01*
X221674076Y-129803229D01*
X221420045Y-129633491D01*
X221204009Y-129417455D01*
X221034271Y-129163424D01*
X220917354Y-128881160D01*
X220887552Y-128731335D01*
X220857750Y-128581511D01*
X220857750Y-128275989D01*
X220917354Y-127976341D01*
X220917354Y-127976340D01*
X221034271Y-127694076D01*
X221204009Y-127440045D01*
X221420045Y-127224009D01*
X221674076Y-127054271D01*
X221956340Y-126937354D01*
X222130869Y-126902638D01*
X222255989Y-126877750D01*
X222561511Y-126877750D01*
X222686631Y-126902638D01*
X222686631Y-126902638D01*
G37*
G36*
X220459750Y-129729750D02*
G01*
X217807750Y-129729750D01*
X217807750Y-127127750D01*
X220459750Y-127127750D01*
X220459750Y-129729750D01*
X220459750Y-129729750D01*
G37*
G36*
X201409750Y-129729750D02*
G01*
X198757750Y-129729750D01*
X198757750Y-127127750D01*
X201409750Y-127127750D01*
X201409750Y-129729750D01*
X201409750Y-129729750D01*
G37*
G36*
X239509750Y-129729750D02*
G01*
X236857750Y-129729750D01*
X236857750Y-127127750D01*
X239509750Y-127127750D01*
X239509750Y-129729750D01*
X239509750Y-129729750D01*
G37*
G36*
X216043000Y-129534000D02*
G01*
X214741000Y-129534000D01*
X214741000Y-128532000D01*
X216043000Y-128532000D01*
X216043000Y-129534000D01*
X216043000Y-129534000D01*
G37*
G36*
X254143000Y-129534000D02*
G01*
X252841000Y-129534000D01*
X252841000Y-128532000D01*
X254143000Y-128532000D01*
X254143000Y-129534000D01*
X254143000Y-129534000D01*
G37*
G36*
X235093000Y-129534000D02*
G01*
X233791000Y-129534000D01*
X233791000Y-128532000D01*
X235093000Y-128532000D01*
X235093000Y-129534000D01*
X235093000Y-129534000D01*
G37*
G36*
X189873000Y-128929000D02*
G01*
X181221000Y-128929000D01*
X181221000Y-127327000D01*
X189873000Y-127327000D01*
X189873000Y-128929000D01*
X189873000Y-128929000D01*
G37*
G36*
X195529468Y-127833065D02*
G01*
X195568138Y-127844796D01*
X195603777Y-127863846D01*
X195635017Y-127889483D01*
X195660654Y-127920723D01*
X195679704Y-127956362D01*
X195691435Y-127995032D01*
X195696000Y-128041388D01*
X195696000Y-128692612D01*
X195691435Y-128738968D01*
X195679704Y-128777638D01*
X195660654Y-128813277D01*
X195635017Y-128844517D01*
X195603777Y-128870154D01*
X195568138Y-128889204D01*
X195529468Y-128900935D01*
X195483112Y-128905500D01*
X194406888Y-128905500D01*
X194360532Y-128900935D01*
X194321862Y-128889204D01*
X194286223Y-128870154D01*
X194254983Y-128844517D01*
X194229346Y-128813277D01*
X194210296Y-128777638D01*
X194198565Y-128738968D01*
X194194000Y-128692612D01*
X194194000Y-128041388D01*
X194198565Y-127995032D01*
X194210296Y-127956362D01*
X194229346Y-127920723D01*
X194254983Y-127889483D01*
X194286223Y-127863846D01*
X194321862Y-127844796D01*
X194360532Y-127833065D01*
X194406888Y-127828500D01*
X195483112Y-127828500D01*
X195529468Y-127833065D01*
X195529468Y-127833065D01*
G37*
G36*
X229061335Y-124367552D02*
G01*
X229211160Y-124397354D01*
X229493424Y-124514271D01*
X229747455Y-124684009D01*
X229963491Y-124900045D01*
X230133229Y-125154076D01*
X230250146Y-125436340D01*
X230257149Y-125471546D01*
X230296254Y-125668138D01*
X230309750Y-125735990D01*
X230309750Y-126041510D01*
X230250146Y-126341160D01*
X230133229Y-126623424D01*
X229963491Y-126877455D01*
X229747455Y-127093491D01*
X229493424Y-127263229D01*
X229211160Y-127380146D01*
X229061335Y-127409948D01*
X228911511Y-127439750D01*
X228605989Y-127439750D01*
X228456165Y-127409948D01*
X228306340Y-127380146D01*
X228024076Y-127263229D01*
X227770045Y-127093491D01*
X227554009Y-126877455D01*
X227384271Y-126623424D01*
X227267354Y-126341160D01*
X227207750Y-126041510D01*
X227207750Y-125735990D01*
X227221247Y-125668138D01*
X227260351Y-125471546D01*
X227267354Y-125436340D01*
X227384271Y-125154076D01*
X227554009Y-124900045D01*
X227770045Y-124684009D01*
X228024076Y-124514271D01*
X228306340Y-124397354D01*
X228456165Y-124367552D01*
X228605989Y-124337750D01*
X228911511Y-124337750D01*
X229061335Y-124367552D01*
X229061335Y-124367552D01*
G37*
G36*
X210011335Y-124367552D02*
G01*
X210161160Y-124397354D01*
X210443424Y-124514271D01*
X210697455Y-124684009D01*
X210913491Y-124900045D01*
X211083229Y-125154076D01*
X211200146Y-125436340D01*
X211207149Y-125471546D01*
X211246254Y-125668138D01*
X211259750Y-125735990D01*
X211259750Y-126041510D01*
X211200146Y-126341160D01*
X211083229Y-126623424D01*
X210913491Y-126877455D01*
X210697455Y-127093491D01*
X210443424Y-127263229D01*
X210161160Y-127380146D01*
X210011335Y-127409948D01*
X209861511Y-127439750D01*
X209555989Y-127439750D01*
X209406165Y-127409948D01*
X209256340Y-127380146D01*
X208974076Y-127263229D01*
X208720045Y-127093491D01*
X208504009Y-126877455D01*
X208334271Y-126623424D01*
X208217354Y-126341160D01*
X208157750Y-126041510D01*
X208157750Y-125735990D01*
X208171247Y-125668138D01*
X208210351Y-125471546D01*
X208217354Y-125436340D01*
X208334271Y-125154076D01*
X208504009Y-124900045D01*
X208720045Y-124684009D01*
X208974076Y-124514271D01*
X209256340Y-124397354D01*
X209406165Y-124367552D01*
X209555989Y-124337750D01*
X209861511Y-124337750D01*
X210011335Y-124367552D01*
X210011335Y-124367552D01*
G37*
G36*
X248111335Y-124367552D02*
G01*
X248261160Y-124397354D01*
X248543424Y-124514271D01*
X248797455Y-124684009D01*
X249013491Y-124900045D01*
X249183229Y-125154076D01*
X249300146Y-125436340D01*
X249307149Y-125471546D01*
X249346254Y-125668138D01*
X249359750Y-125735990D01*
X249359750Y-126041510D01*
X249300146Y-126341160D01*
X249183229Y-126623424D01*
X249013491Y-126877455D01*
X248797455Y-127093491D01*
X248543424Y-127263229D01*
X248261160Y-127380146D01*
X248111335Y-127409948D01*
X247961511Y-127439750D01*
X247655989Y-127439750D01*
X247506165Y-127409948D01*
X247356340Y-127380146D01*
X247074076Y-127263229D01*
X246820045Y-127093491D01*
X246604009Y-126877455D01*
X246434271Y-126623424D01*
X246317354Y-126341160D01*
X246257750Y-126041510D01*
X246257750Y-125735990D01*
X246271247Y-125668138D01*
X246310351Y-125471546D01*
X246317354Y-125436340D01*
X246434271Y-125154076D01*
X246604009Y-124900045D01*
X246820045Y-124684009D01*
X247074076Y-124514271D01*
X247356340Y-124397354D01*
X247506165Y-124367552D01*
X247655989Y-124337750D01*
X247961511Y-124337750D01*
X248111335Y-124367552D01*
X248111335Y-124367552D01*
G37*
G36*
X214336750Y-127189750D02*
G01*
X211684750Y-127189750D01*
X211684750Y-124587750D01*
X214336750Y-124587750D01*
X214336750Y-127189750D01*
X214336750Y-127189750D01*
G37*
G36*
X233386750Y-127189750D02*
G01*
X230734750Y-127189750D01*
X230734750Y-124587750D01*
X233386750Y-124587750D01*
X233386750Y-127189750D01*
X233386750Y-127189750D01*
G37*
G36*
X252436750Y-127189750D02*
G01*
X249784750Y-127189750D01*
X249784750Y-124587750D01*
X252436750Y-124587750D01*
X252436750Y-127189750D01*
X252436750Y-127189750D01*
G37*
G36*
X195529468Y-125958065D02*
G01*
X195568138Y-125969796D01*
X195603777Y-125988846D01*
X195635017Y-126014483D01*
X195660654Y-126045723D01*
X195679704Y-126081362D01*
X195691435Y-126120032D01*
X195696000Y-126166388D01*
X195696000Y-126817612D01*
X195691435Y-126863968D01*
X195679704Y-126902638D01*
X195660654Y-126938277D01*
X195635017Y-126969517D01*
X195603777Y-126995154D01*
X195568138Y-127014204D01*
X195529468Y-127025935D01*
X195483112Y-127030500D01*
X194406888Y-127030500D01*
X194360532Y-127025935D01*
X194321862Y-127014204D01*
X194286223Y-126995154D01*
X194254983Y-126969517D01*
X194229346Y-126938277D01*
X194210296Y-126902638D01*
X194198565Y-126863968D01*
X194194000Y-126817612D01*
X194194000Y-126166388D01*
X194198565Y-126120032D01*
X194210296Y-126081362D01*
X194229346Y-126045723D01*
X194254983Y-126014483D01*
X194286223Y-125988846D01*
X194321862Y-125969796D01*
X194360532Y-125958065D01*
X194406888Y-125953500D01*
X195483112Y-125953500D01*
X195529468Y-125958065D01*
X195529468Y-125958065D01*
G37*
G36*
X171821968Y-125459815D02*
G01*
X171860638Y-125471546D01*
X171896277Y-125490596D01*
X171927517Y-125516233D01*
X171953154Y-125547473D01*
X171972204Y-125583112D01*
X171983935Y-125621782D01*
X171988500Y-125668138D01*
X171988500Y-126744362D01*
X171983935Y-126790718D01*
X171972204Y-126829388D01*
X171953154Y-126865027D01*
X171927517Y-126896267D01*
X171896277Y-126921904D01*
X171860638Y-126940954D01*
X171821968Y-126952685D01*
X171775612Y-126957250D01*
X171124388Y-126957250D01*
X171078032Y-126952685D01*
X171039362Y-126940954D01*
X171003723Y-126921904D01*
X170972483Y-126896267D01*
X170946846Y-126865027D01*
X170927796Y-126829388D01*
X170916065Y-126790718D01*
X170911500Y-126744362D01*
X170911500Y-125668138D01*
X170916065Y-125621782D01*
X170927796Y-125583112D01*
X170946846Y-125547473D01*
X170972483Y-125516233D01*
X171003723Y-125490596D01*
X171039362Y-125471546D01*
X171078032Y-125459815D01*
X171124388Y-125455250D01*
X171775612Y-125455250D01*
X171821968Y-125459815D01*
X171821968Y-125459815D01*
G37*
G36*
X169946968Y-125459815D02*
G01*
X169985638Y-125471546D01*
X170021277Y-125490596D01*
X170052517Y-125516233D01*
X170078154Y-125547473D01*
X170097204Y-125583112D01*
X170108935Y-125621782D01*
X170113500Y-125668138D01*
X170113500Y-126744362D01*
X170108935Y-126790718D01*
X170097204Y-126829388D01*
X170078154Y-126865027D01*
X170052517Y-126896267D01*
X170021277Y-126921904D01*
X169985638Y-126940954D01*
X169946968Y-126952685D01*
X169900612Y-126957250D01*
X169249388Y-126957250D01*
X169203032Y-126952685D01*
X169164362Y-126940954D01*
X169128723Y-126921904D01*
X169097483Y-126896267D01*
X169071846Y-126865027D01*
X169052796Y-126829388D01*
X169041065Y-126790718D01*
X169036500Y-126744362D01*
X169036500Y-125668138D01*
X169041065Y-125621782D01*
X169052796Y-125583112D01*
X169071846Y-125547473D01*
X169097483Y-125516233D01*
X169128723Y-125490596D01*
X169164362Y-125471546D01*
X169203032Y-125459815D01*
X169249388Y-125455250D01*
X169900612Y-125455250D01*
X169946968Y-125459815D01*
X169946968Y-125459815D01*
G37*
G36*
X192048000Y-126754000D02*
G01*
X190446000Y-126754000D01*
X190446000Y-118102000D01*
X192048000Y-118102000D01*
X192048000Y-126754000D01*
X192048000Y-126754000D01*
G37*
G36*
X180648000Y-126754000D02*
G01*
X179046000Y-126754000D01*
X179046000Y-118102000D01*
X180648000Y-118102000D01*
X180648000Y-126754000D01*
X180648000Y-126754000D01*
G37*
G36*
X167456104Y-123153347D02*
G01*
X167492644Y-123164432D01*
X167526321Y-123182433D01*
X167555841Y-123206659D01*
X167580067Y-123236179D01*
X167598068Y-123269856D01*
X167609153Y-123306396D01*
X167613500Y-123350538D01*
X167613500Y-124299462D01*
X167609153Y-124343604D01*
X167598068Y-124380144D01*
X167580067Y-124413821D01*
X167555841Y-124443341D01*
X167526321Y-124467567D01*
X167492644Y-124485568D01*
X167456104Y-124496653D01*
X167411962Y-124501000D01*
X165963038Y-124501000D01*
X165918896Y-124496653D01*
X165882356Y-124485568D01*
X165848679Y-124467567D01*
X165819159Y-124443341D01*
X165794933Y-124413821D01*
X165776932Y-124380144D01*
X165765847Y-124343604D01*
X165761500Y-124299462D01*
X165761500Y-123350538D01*
X165765847Y-123306396D01*
X165776932Y-123269856D01*
X165794933Y-123236179D01*
X165819159Y-123206659D01*
X165848679Y-123182433D01*
X165882356Y-123164432D01*
X165918896Y-123153347D01*
X165963038Y-123149000D01*
X167411962Y-123149000D01*
X167456104Y-123153347D01*
X167456104Y-123153347D01*
G37*
G36*
X167456104Y-120353347D02*
G01*
X167492644Y-120364432D01*
X167526321Y-120382433D01*
X167555841Y-120406659D01*
X167580067Y-120436179D01*
X167598068Y-120469856D01*
X167609153Y-120506396D01*
X167613500Y-120550538D01*
X167613500Y-121499462D01*
X167609153Y-121543604D01*
X167598068Y-121580144D01*
X167580067Y-121613821D01*
X167555841Y-121643341D01*
X167526321Y-121667567D01*
X167492644Y-121685568D01*
X167456104Y-121696653D01*
X167411962Y-121701000D01*
X165963038Y-121701000D01*
X165918896Y-121696653D01*
X165882356Y-121685568D01*
X165848679Y-121667567D01*
X165819159Y-121643341D01*
X165794933Y-121613821D01*
X165776932Y-121580144D01*
X165765847Y-121543604D01*
X165761500Y-121499462D01*
X165761500Y-120550538D01*
X165765847Y-120506396D01*
X165776932Y-120469856D01*
X165794933Y-120436179D01*
X165819159Y-120406659D01*
X165848679Y-120382433D01*
X165882356Y-120364432D01*
X165918896Y-120353347D01*
X165963038Y-120349000D01*
X167411962Y-120349000D01*
X167456104Y-120353347D01*
X167456104Y-120353347D01*
G37*
G36*
X189873000Y-117529000D02*
G01*
X181221000Y-117529000D01*
X181221000Y-115927000D01*
X189873000Y-115927000D01*
X189873000Y-117529000D01*
X189873000Y-117529000D01*
G37*
G36*
X195783468Y-116433065D02*
G01*
X195822138Y-116444796D01*
X195857777Y-116463846D01*
X195889017Y-116489483D01*
X195914654Y-116520723D01*
X195933704Y-116556362D01*
X195945435Y-116595032D01*
X195950000Y-116641388D01*
X195950000Y-117292612D01*
X195945435Y-117338968D01*
X195933704Y-117377638D01*
X195914654Y-117413277D01*
X195889017Y-117444517D01*
X195857777Y-117470154D01*
X195822138Y-117489204D01*
X195783468Y-117500935D01*
X195737112Y-117505500D01*
X194660888Y-117505500D01*
X194614532Y-117500935D01*
X194575862Y-117489204D01*
X194540223Y-117470154D01*
X194508983Y-117444517D01*
X194483346Y-117413277D01*
X194464296Y-117377638D01*
X194452565Y-117338968D01*
X194448000Y-117292612D01*
X194448000Y-116641388D01*
X194452565Y-116595032D01*
X194464296Y-116556362D01*
X194483346Y-116520723D01*
X194508983Y-116489483D01*
X194540223Y-116463846D01*
X194575862Y-116444796D01*
X194614532Y-116433065D01*
X194660888Y-116428500D01*
X195737112Y-116428500D01*
X195783468Y-116433065D01*
X195783468Y-116433065D01*
G37*
G36*
X173685468Y-115895065D02*
G01*
X173724138Y-115906796D01*
X173759777Y-115925846D01*
X173791017Y-115951483D01*
X173816654Y-115982723D01*
X173835704Y-116018362D01*
X173847435Y-116057032D01*
X173852000Y-116103388D01*
X173852000Y-116754612D01*
X173847435Y-116800968D01*
X173835704Y-116839638D01*
X173816654Y-116875277D01*
X173791017Y-116906517D01*
X173759777Y-116932154D01*
X173724138Y-116951204D01*
X173685468Y-116962935D01*
X173639112Y-116967500D01*
X172562888Y-116967500D01*
X172516532Y-116962935D01*
X172477862Y-116951204D01*
X172442223Y-116932154D01*
X172410983Y-116906517D01*
X172385346Y-116875277D01*
X172366296Y-116839638D01*
X172354565Y-116800968D01*
X172350000Y-116754612D01*
X172350000Y-116103388D01*
X172354565Y-116057032D01*
X172366296Y-116018362D01*
X172385346Y-115982723D01*
X172410983Y-115951483D01*
X172442223Y-115925846D01*
X172477862Y-115906796D01*
X172516532Y-115895065D01*
X172562888Y-115890500D01*
X173639112Y-115890500D01*
X173685468Y-115895065D01*
X173685468Y-115895065D01*
G37*
G36*
X167081468Y-115671065D02*
G01*
X167120138Y-115682796D01*
X167155777Y-115701846D01*
X167187017Y-115727483D01*
X167212654Y-115758723D01*
X167231704Y-115794362D01*
X167243435Y-115833032D01*
X167248000Y-115879388D01*
X167248000Y-116530612D01*
X167243435Y-116576968D01*
X167231704Y-116615638D01*
X167212654Y-116651277D01*
X167187017Y-116682517D01*
X167155777Y-116708154D01*
X167120138Y-116727204D01*
X167081468Y-116738935D01*
X167035112Y-116743500D01*
X165958888Y-116743500D01*
X165912532Y-116738935D01*
X165873862Y-116727204D01*
X165838223Y-116708154D01*
X165806983Y-116682517D01*
X165781346Y-116651277D01*
X165762296Y-116615638D01*
X165750565Y-116576968D01*
X165746000Y-116530612D01*
X165746000Y-115879388D01*
X165750565Y-115833032D01*
X165762296Y-115794362D01*
X165781346Y-115758723D01*
X165806983Y-115727483D01*
X165838223Y-115701846D01*
X165873862Y-115682796D01*
X165912532Y-115671065D01*
X165958888Y-115666500D01*
X167035112Y-115666500D01*
X167081468Y-115671065D01*
X167081468Y-115671065D01*
G37*
G36*
X169748468Y-115671065D02*
G01*
X169787138Y-115682796D01*
X169822777Y-115701846D01*
X169854017Y-115727483D01*
X169879654Y-115758723D01*
X169898704Y-115794362D01*
X169910435Y-115833032D01*
X169915000Y-115879388D01*
X169915000Y-116530612D01*
X169910435Y-116576968D01*
X169898704Y-116615638D01*
X169879654Y-116651277D01*
X169854017Y-116682517D01*
X169822777Y-116708154D01*
X169787138Y-116727204D01*
X169748468Y-116738935D01*
X169702112Y-116743500D01*
X168625888Y-116743500D01*
X168579532Y-116738935D01*
X168540862Y-116727204D01*
X168505223Y-116708154D01*
X168473983Y-116682517D01*
X168448346Y-116651277D01*
X168429296Y-116615638D01*
X168417565Y-116576968D01*
X168413000Y-116530612D01*
X168413000Y-115879388D01*
X168417565Y-115833032D01*
X168429296Y-115794362D01*
X168448346Y-115758723D01*
X168473983Y-115727483D01*
X168505223Y-115701846D01*
X168540862Y-115682796D01*
X168579532Y-115671065D01*
X168625888Y-115666500D01*
X169702112Y-115666500D01*
X169748468Y-115671065D01*
X169748468Y-115671065D01*
G37*
G36*
X195783468Y-114558065D02*
G01*
X195822138Y-114569796D01*
X195857777Y-114588846D01*
X195889017Y-114614483D01*
X195914654Y-114645723D01*
X195933704Y-114681362D01*
X195945435Y-114720032D01*
X195950000Y-114766388D01*
X195950000Y-115417612D01*
X195945435Y-115463968D01*
X195933704Y-115502638D01*
X195914654Y-115538277D01*
X195889017Y-115569517D01*
X195857777Y-115595154D01*
X195822138Y-115614204D01*
X195783468Y-115625935D01*
X195737112Y-115630500D01*
X194660888Y-115630500D01*
X194614532Y-115625935D01*
X194575862Y-115614204D01*
X194540223Y-115595154D01*
X194508983Y-115569517D01*
X194483346Y-115538277D01*
X194464296Y-115502638D01*
X194452565Y-115463968D01*
X194448000Y-115417612D01*
X194448000Y-114766388D01*
X194452565Y-114720032D01*
X194464296Y-114681362D01*
X194483346Y-114645723D01*
X194508983Y-114614483D01*
X194540223Y-114588846D01*
X194575862Y-114569796D01*
X194614532Y-114558065D01*
X194660888Y-114553500D01*
X195737112Y-114553500D01*
X195783468Y-114558065D01*
X195783468Y-114558065D01*
G37*
G36*
X173685468Y-114020065D02*
G01*
X173724138Y-114031796D01*
X173759777Y-114050846D01*
X173791017Y-114076483D01*
X173816654Y-114107723D01*
X173835704Y-114143362D01*
X173847435Y-114182032D01*
X173852000Y-114228388D01*
X173852000Y-114879612D01*
X173847435Y-114925968D01*
X173835704Y-114964638D01*
X173816654Y-115000277D01*
X173791017Y-115031517D01*
X173759777Y-115057154D01*
X173724138Y-115076204D01*
X173685468Y-115087935D01*
X173639112Y-115092500D01*
X172562888Y-115092500D01*
X172516532Y-115087935D01*
X172477862Y-115076204D01*
X172442223Y-115057154D01*
X172410983Y-115031517D01*
X172385346Y-115000277D01*
X172366296Y-114964638D01*
X172354565Y-114925968D01*
X172350000Y-114879612D01*
X172350000Y-114228388D01*
X172354565Y-114182032D01*
X172366296Y-114143362D01*
X172385346Y-114107723D01*
X172410983Y-114076483D01*
X172442223Y-114050846D01*
X172477862Y-114031796D01*
X172516532Y-114020065D01*
X172562888Y-114015500D01*
X173639112Y-114015500D01*
X173685468Y-114020065D01*
X173685468Y-114020065D01*
G37*
G36*
X169748468Y-113796065D02*
G01*
X169787138Y-113807796D01*
X169822777Y-113826846D01*
X169854017Y-113852483D01*
X169879654Y-113883723D01*
X169898704Y-113919362D01*
X169910435Y-113958032D01*
X169915000Y-114004388D01*
X169915000Y-114655612D01*
X169910435Y-114701968D01*
X169898704Y-114740638D01*
X169879654Y-114776277D01*
X169854017Y-114807517D01*
X169822777Y-114833154D01*
X169787138Y-114852204D01*
X169748468Y-114863935D01*
X169702112Y-114868500D01*
X168625888Y-114868500D01*
X168579532Y-114863935D01*
X168540862Y-114852204D01*
X168505223Y-114833154D01*
X168473983Y-114807517D01*
X168448346Y-114776277D01*
X168429296Y-114740638D01*
X168417565Y-114701968D01*
X168413000Y-114655612D01*
X168413000Y-114004388D01*
X168417565Y-113958032D01*
X168429296Y-113919362D01*
X168448346Y-113883723D01*
X168473983Y-113852483D01*
X168505223Y-113826846D01*
X168540862Y-113807796D01*
X168579532Y-113796065D01*
X168625888Y-113791500D01*
X169702112Y-113791500D01*
X169748468Y-113796065D01*
X169748468Y-113796065D01*
G37*
G36*
X167081468Y-113796065D02*
G01*
X167120138Y-113807796D01*
X167155777Y-113826846D01*
X167187017Y-113852483D01*
X167212654Y-113883723D01*
X167231704Y-113919362D01*
X167243435Y-113958032D01*
X167248000Y-114004388D01*
X167248000Y-114655612D01*
X167243435Y-114701968D01*
X167231704Y-114740638D01*
X167212654Y-114776277D01*
X167187017Y-114807517D01*
X167155777Y-114833154D01*
X167120138Y-114852204D01*
X167081468Y-114863935D01*
X167035112Y-114868500D01*
X165958888Y-114868500D01*
X165912532Y-114863935D01*
X165873862Y-114852204D01*
X165838223Y-114833154D01*
X165806983Y-114807517D01*
X165781346Y-114776277D01*
X165762296Y-114740638D01*
X165750565Y-114701968D01*
X165746000Y-114655612D01*
X165746000Y-114004388D01*
X165750565Y-113958032D01*
X165762296Y-113919362D01*
X165781346Y-113883723D01*
X165806983Y-113852483D01*
X165838223Y-113826846D01*
X165873862Y-113807796D01*
X165912532Y-113796065D01*
X165958888Y-113791500D01*
X167035112Y-113791500D01*
X167081468Y-113796065D01*
X167081468Y-113796065D01*
G37*
G36*
X245865224Y-109952434D02*
G01*
X246083224Y-110042733D01*
X246237373Y-110106583D01*
X246572298Y-110330373D01*
X246857127Y-110615202D01*
X247080917Y-110950127D01*
X247141247Y-111095778D01*
X247235066Y-111322276D01*
X247313650Y-111717344D01*
X247313650Y-112120156D01*
X247235066Y-112515224D01*
X247184201Y-112638022D01*
X247080917Y-112887373D01*
X246857127Y-113222298D01*
X246572298Y-113507127D01*
X246237373Y-113730917D01*
X246111633Y-113783000D01*
X245865224Y-113885066D01*
X245470156Y-113963650D01*
X245067344Y-113963650D01*
X244672276Y-113885066D01*
X244425867Y-113783000D01*
X244300127Y-113730917D01*
X243965202Y-113507127D01*
X243680373Y-113222298D01*
X243456583Y-112887373D01*
X243353299Y-112638022D01*
X243302434Y-112515224D01*
X243223850Y-112120156D01*
X243223850Y-111717344D01*
X243302434Y-111322276D01*
X243396253Y-111095778D01*
X243456583Y-110950127D01*
X243680373Y-110615202D01*
X243965202Y-110330373D01*
X244300127Y-110106583D01*
X244454276Y-110042733D01*
X244672276Y-109952434D01*
X245067344Y-109873850D01*
X245470156Y-109873850D01*
X245865224Y-109952434D01*
X245865224Y-109952434D01*
G37*
G36*
X226815224Y-109952434D02*
G01*
X227033224Y-110042733D01*
X227187373Y-110106583D01*
X227522298Y-110330373D01*
X227807127Y-110615202D01*
X228030917Y-110950127D01*
X228091247Y-111095778D01*
X228185066Y-111322276D01*
X228263650Y-111717344D01*
X228263650Y-112120156D01*
X228185066Y-112515224D01*
X228134201Y-112638022D01*
X228030917Y-112887373D01*
X227807127Y-113222298D01*
X227522298Y-113507127D01*
X227187373Y-113730917D01*
X227061633Y-113783000D01*
X226815224Y-113885066D01*
X226420156Y-113963650D01*
X226017344Y-113963650D01*
X225622276Y-113885066D01*
X225375867Y-113783000D01*
X225250127Y-113730917D01*
X224915202Y-113507127D01*
X224630373Y-113222298D01*
X224406583Y-112887373D01*
X224303299Y-112638022D01*
X224252434Y-112515224D01*
X224173850Y-112120156D01*
X224173850Y-111717344D01*
X224252434Y-111322276D01*
X224346253Y-111095778D01*
X224406583Y-110950127D01*
X224630373Y-110615202D01*
X224915202Y-110330373D01*
X225250127Y-110106583D01*
X225404276Y-110042733D01*
X225622276Y-109952434D01*
X226017344Y-109873850D01*
X226420156Y-109873850D01*
X226815224Y-109952434D01*
X226815224Y-109952434D01*
G37*
G36*
X207765224Y-109952434D02*
G01*
X207983224Y-110042733D01*
X208137373Y-110106583D01*
X208472298Y-110330373D01*
X208757127Y-110615202D01*
X208980917Y-110950127D01*
X209041247Y-111095778D01*
X209135066Y-111322276D01*
X209213650Y-111717344D01*
X209213650Y-112120156D01*
X209135066Y-112515224D01*
X209084201Y-112638022D01*
X208980917Y-112887373D01*
X208757127Y-113222298D01*
X208472298Y-113507127D01*
X208137373Y-113730917D01*
X208011633Y-113783000D01*
X207765224Y-113885066D01*
X207370156Y-113963650D01*
X206967344Y-113963650D01*
X206572276Y-113885066D01*
X206325867Y-113783000D01*
X206200127Y-113730917D01*
X205865202Y-113507127D01*
X205580373Y-113222298D01*
X205356583Y-112887373D01*
X205253299Y-112638022D01*
X205202434Y-112515224D01*
X205123850Y-112120156D01*
X205123850Y-111717344D01*
X205202434Y-111322276D01*
X205296253Y-111095778D01*
X205356583Y-110950127D01*
X205580373Y-110615202D01*
X205865202Y-110330373D01*
X206200127Y-110106583D01*
X206354276Y-110042733D01*
X206572276Y-109952434D01*
X206967344Y-109873850D01*
X207370156Y-109873850D01*
X207765224Y-109952434D01*
X207765224Y-109952434D01*
G37*
G36*
X235093000Y-113784000D02*
G01*
X233791000Y-113784000D01*
X233791000Y-112782000D01*
X235093000Y-112782000D01*
X235093000Y-113784000D01*
X235093000Y-113784000D01*
G37*
G36*
X216043000Y-113783000D02*
G01*
X214741000Y-113783000D01*
X214741000Y-112781000D01*
X216043000Y-112781000D01*
X216043000Y-113783000D01*
X216043000Y-113783000D01*
G37*
G36*
X254143000Y-113783000D02*
G01*
X252841000Y-113783000D01*
X252841000Y-112781000D01*
X254143000Y-112781000D01*
X254143000Y-113783000D01*
X254143000Y-113783000D01*
G37*
G36*
X187468000Y-113654000D02*
G01*
X186166000Y-113654000D01*
X186166000Y-112152000D01*
X187468000Y-112152000D01*
X187468000Y-113654000D01*
X187468000Y-113654000D01*
G37*
G36*
X185768000Y-113654000D02*
G01*
X184466000Y-113654000D01*
X184466000Y-112152000D01*
X185768000Y-112152000D01*
X185768000Y-113654000D01*
X185768000Y-113654000D01*
G37*
G36*
X182067468Y-112115065D02*
G01*
X182106138Y-112126796D01*
X182141777Y-112145846D01*
X182173017Y-112171483D01*
X182198654Y-112202723D01*
X182217704Y-112238362D01*
X182229435Y-112277032D01*
X182234000Y-112323388D01*
X182234000Y-112974612D01*
X182229435Y-113020968D01*
X182217704Y-113059638D01*
X182198654Y-113095277D01*
X182173017Y-113126517D01*
X182141777Y-113152154D01*
X182106138Y-113171204D01*
X182067468Y-113182935D01*
X182021112Y-113187500D01*
X180944888Y-113187500D01*
X180898532Y-113182935D01*
X180859862Y-113171204D01*
X180824223Y-113152154D01*
X180792983Y-113126517D01*
X180767346Y-113095277D01*
X180748296Y-113059638D01*
X180736565Y-113020968D01*
X180732000Y-112974612D01*
X180732000Y-112323388D01*
X180736565Y-112277032D01*
X180748296Y-112238362D01*
X180767346Y-112202723D01*
X180792983Y-112171483D01*
X180824223Y-112145846D01*
X180859862Y-112126796D01*
X180898532Y-112115065D01*
X180944888Y-112110500D01*
X182021112Y-112110500D01*
X182067468Y-112115065D01*
X182067468Y-112115065D01*
G37*
G36*
X190830468Y-112115065D02*
G01*
X190869138Y-112126796D01*
X190904777Y-112145846D01*
X190936017Y-112171483D01*
X190961654Y-112202723D01*
X190980704Y-112238362D01*
X190992435Y-112277032D01*
X190997000Y-112323388D01*
X190997000Y-112974612D01*
X190992435Y-113020968D01*
X190980704Y-113059638D01*
X190961654Y-113095277D01*
X190936017Y-113126517D01*
X190904777Y-113152154D01*
X190869138Y-113171204D01*
X190830468Y-113182935D01*
X190784112Y-113187500D01*
X189707888Y-113187500D01*
X189661532Y-113182935D01*
X189622862Y-113171204D01*
X189587223Y-113152154D01*
X189555983Y-113126517D01*
X189530346Y-113095277D01*
X189511296Y-113059638D01*
X189499565Y-113020968D01*
X189495000Y-112974612D01*
X189495000Y-112323388D01*
X189499565Y-112277032D01*
X189511296Y-112238362D01*
X189530346Y-112202723D01*
X189555983Y-112171483D01*
X189587223Y-112145846D01*
X189622862Y-112126796D01*
X189661532Y-112115065D01*
X189707888Y-112110500D01*
X190784112Y-112110500D01*
X190830468Y-112115065D01*
X190830468Y-112115065D01*
G37*
G36*
X212518854Y-111028335D02*
G01*
X212687376Y-111098139D01*
X212839041Y-111199478D01*
X212968022Y-111328459D01*
X213069361Y-111480124D01*
X213139165Y-111648646D01*
X213174750Y-111827547D01*
X213174750Y-112009953D01*
X213139165Y-112188854D01*
X213069361Y-112357376D01*
X212968022Y-112509041D01*
X212839041Y-112638022D01*
X212687376Y-112739361D01*
X212518854Y-112809165D01*
X212339953Y-112844750D01*
X212157547Y-112844750D01*
X211978646Y-112809165D01*
X211810124Y-112739361D01*
X211658459Y-112638022D01*
X211529478Y-112509041D01*
X211428139Y-112357376D01*
X211358335Y-112188854D01*
X211322750Y-112009953D01*
X211322750Y-111827547D01*
X211358335Y-111648646D01*
X211428139Y-111480124D01*
X211529478Y-111328459D01*
X211658459Y-111199478D01*
X211810124Y-111098139D01*
X211978646Y-111028335D01*
X212157547Y-110992750D01*
X212339953Y-110992750D01*
X212518854Y-111028335D01*
X212518854Y-111028335D01*
G37*
G36*
X202358854Y-111028335D02*
G01*
X202527376Y-111098139D01*
X202679041Y-111199478D01*
X202808022Y-111328459D01*
X202909361Y-111480124D01*
X202979165Y-111648646D01*
X203014750Y-111827547D01*
X203014750Y-112009953D01*
X202979165Y-112188854D01*
X202909361Y-112357376D01*
X202808022Y-112509041D01*
X202679041Y-112638022D01*
X202527376Y-112739361D01*
X202358854Y-112809165D01*
X202179953Y-112844750D01*
X201997547Y-112844750D01*
X201818646Y-112809165D01*
X201650124Y-112739361D01*
X201498459Y-112638022D01*
X201369478Y-112509041D01*
X201268139Y-112357376D01*
X201198335Y-112188854D01*
X201162750Y-112009953D01*
X201162750Y-111827547D01*
X201198335Y-111648646D01*
X201268139Y-111480124D01*
X201369478Y-111328459D01*
X201498459Y-111199478D01*
X201650124Y-111098139D01*
X201818646Y-111028335D01*
X201997547Y-110992750D01*
X202179953Y-110992750D01*
X202358854Y-111028335D01*
X202358854Y-111028335D01*
G37*
G36*
X221408854Y-111028335D02*
G01*
X221577376Y-111098139D01*
X221729041Y-111199478D01*
X221858022Y-111328459D01*
X221959361Y-111480124D01*
X222029165Y-111648646D01*
X222064750Y-111827547D01*
X222064750Y-112009953D01*
X222029165Y-112188854D01*
X221959361Y-112357376D01*
X221858022Y-112509041D01*
X221729041Y-112638022D01*
X221577376Y-112739361D01*
X221408854Y-112809165D01*
X221229953Y-112844750D01*
X221047547Y-112844750D01*
X220868646Y-112809165D01*
X220700124Y-112739361D01*
X220548459Y-112638022D01*
X220419478Y-112509041D01*
X220318139Y-112357376D01*
X220248335Y-112188854D01*
X220212750Y-112009953D01*
X220212750Y-111827547D01*
X220248335Y-111648646D01*
X220318139Y-111480124D01*
X220419478Y-111328459D01*
X220548459Y-111199478D01*
X220700124Y-111098139D01*
X220868646Y-111028335D01*
X221047547Y-110992750D01*
X221229953Y-110992750D01*
X221408854Y-111028335D01*
X221408854Y-111028335D01*
G37*
G36*
X231568854Y-111028335D02*
G01*
X231737376Y-111098139D01*
X231889041Y-111199478D01*
X232018022Y-111328459D01*
X232119361Y-111480124D01*
X232189165Y-111648646D01*
X232224750Y-111827547D01*
X232224750Y-112009953D01*
X232189165Y-112188854D01*
X232119361Y-112357376D01*
X232018022Y-112509041D01*
X231889041Y-112638022D01*
X231737376Y-112739361D01*
X231568854Y-112809165D01*
X231389953Y-112844750D01*
X231207547Y-112844750D01*
X231028646Y-112809165D01*
X230860124Y-112739361D01*
X230708459Y-112638022D01*
X230579478Y-112509041D01*
X230478139Y-112357376D01*
X230408335Y-112188854D01*
X230372750Y-112009953D01*
X230372750Y-111827547D01*
X230408335Y-111648646D01*
X230478139Y-111480124D01*
X230579478Y-111328459D01*
X230708459Y-111199478D01*
X230860124Y-111098139D01*
X231028646Y-111028335D01*
X231207547Y-110992750D01*
X231389953Y-110992750D01*
X231568854Y-111028335D01*
X231568854Y-111028335D01*
G37*
G36*
X240458854Y-111028335D02*
G01*
X240627376Y-111098139D01*
X240779041Y-111199478D01*
X240908022Y-111328459D01*
X241009361Y-111480124D01*
X241079165Y-111648646D01*
X241114750Y-111827547D01*
X241114750Y-112009953D01*
X241079165Y-112188854D01*
X241009361Y-112357376D01*
X240908022Y-112509041D01*
X240779041Y-112638022D01*
X240627376Y-112739361D01*
X240458854Y-112809165D01*
X240279953Y-112844750D01*
X240097547Y-112844750D01*
X239918646Y-112809165D01*
X239750124Y-112739361D01*
X239598459Y-112638022D01*
X239469478Y-112509041D01*
X239368139Y-112357376D01*
X239298335Y-112188854D01*
X239262750Y-112009953D01*
X239262750Y-111827547D01*
X239298335Y-111648646D01*
X239368139Y-111480124D01*
X239469478Y-111328459D01*
X239598459Y-111199478D01*
X239750124Y-111098139D01*
X239918646Y-111028335D01*
X240097547Y-110992750D01*
X240279953Y-110992750D01*
X240458854Y-111028335D01*
X240458854Y-111028335D01*
G37*
G36*
X250618854Y-111028335D02*
G01*
X250787376Y-111098139D01*
X250939041Y-111199478D01*
X251068022Y-111328459D01*
X251169361Y-111480124D01*
X251239165Y-111648646D01*
X251274750Y-111827547D01*
X251274750Y-112009953D01*
X251239165Y-112188854D01*
X251169361Y-112357376D01*
X251068022Y-112509041D01*
X250939041Y-112638022D01*
X250787376Y-112739361D01*
X250618854Y-112809165D01*
X250439953Y-112844750D01*
X250257547Y-112844750D01*
X250078646Y-112809165D01*
X249910124Y-112739361D01*
X249758459Y-112638022D01*
X249629478Y-112509041D01*
X249528139Y-112357376D01*
X249458335Y-112188854D01*
X249422750Y-112009953D01*
X249422750Y-111827547D01*
X249458335Y-111648646D01*
X249528139Y-111480124D01*
X249629478Y-111328459D01*
X249758459Y-111199478D01*
X249910124Y-111098139D01*
X250078646Y-111028335D01*
X250257547Y-110992750D01*
X250439953Y-110992750D01*
X250618854Y-111028335D01*
X250618854Y-111028335D01*
G37*
G36*
X185768000Y-111454000D02*
G01*
X184466000Y-111454000D01*
X184466000Y-109952000D01*
X185768000Y-109952000D01*
X185768000Y-111454000D01*
X185768000Y-111454000D01*
G37*
G36*
X187468000Y-111454000D02*
G01*
X186166000Y-111454000D01*
X186166000Y-109952000D01*
X187468000Y-109952000D01*
X187468000Y-111454000D01*
X187468000Y-111454000D01*
G37*
G36*
X182067468Y-110240065D02*
G01*
X182106138Y-110251796D01*
X182141777Y-110270846D01*
X182173017Y-110296483D01*
X182198654Y-110327723D01*
X182217704Y-110363362D01*
X182229435Y-110402032D01*
X182234000Y-110448388D01*
X182234000Y-111099612D01*
X182229435Y-111145968D01*
X182217704Y-111184638D01*
X182198654Y-111220277D01*
X182173017Y-111251517D01*
X182141777Y-111277154D01*
X182106138Y-111296204D01*
X182067468Y-111307935D01*
X182021112Y-111312500D01*
X180944888Y-111312500D01*
X180898532Y-111307935D01*
X180859862Y-111296204D01*
X180824223Y-111277154D01*
X180792983Y-111251517D01*
X180767346Y-111220277D01*
X180748296Y-111184638D01*
X180736565Y-111145968D01*
X180732000Y-111099612D01*
X180732000Y-110448388D01*
X180736565Y-110402032D01*
X180748296Y-110363362D01*
X180767346Y-110327723D01*
X180792983Y-110296483D01*
X180824223Y-110270846D01*
X180859862Y-110251796D01*
X180898532Y-110240065D01*
X180944888Y-110235500D01*
X182021112Y-110235500D01*
X182067468Y-110240065D01*
X182067468Y-110240065D01*
G37*
G36*
X190830468Y-110240065D02*
G01*
X190869138Y-110251796D01*
X190904777Y-110270846D01*
X190936017Y-110296483D01*
X190961654Y-110327723D01*
X190980704Y-110363362D01*
X190992435Y-110402032D01*
X190997000Y-110448388D01*
X190997000Y-111099612D01*
X190992435Y-111145968D01*
X190980704Y-111184638D01*
X190961654Y-111220277D01*
X190936017Y-111251517D01*
X190904777Y-111277154D01*
X190869138Y-111296204D01*
X190830468Y-111307935D01*
X190784112Y-111312500D01*
X189707888Y-111312500D01*
X189661532Y-111307935D01*
X189622862Y-111296204D01*
X189587223Y-111277154D01*
X189555983Y-111251517D01*
X189530346Y-111220277D01*
X189511296Y-111184638D01*
X189499565Y-111145968D01*
X189495000Y-111099612D01*
X189495000Y-110448388D01*
X189499565Y-110402032D01*
X189511296Y-110363362D01*
X189530346Y-110327723D01*
X189555983Y-110296483D01*
X189587223Y-110270846D01*
X189622862Y-110251796D01*
X189661532Y-110240065D01*
X189707888Y-110235500D01*
X190784112Y-110235500D01*
X190830468Y-110240065D01*
X190830468Y-110240065D01*
G37*
G36*
X203661335Y-107857552D02*
G01*
X203811160Y-107887354D01*
X204093424Y-108004271D01*
X204347455Y-108174009D01*
X204563491Y-108390045D01*
X204733229Y-108644076D01*
X204850146Y-108926340D01*
X204850146Y-108926341D01*
X204909750Y-109225989D01*
X204909750Y-109531511D01*
X204898072Y-109590218D01*
X204850146Y-109831160D01*
X204733229Y-110113424D01*
X204563491Y-110367455D01*
X204347455Y-110583491D01*
X204093424Y-110753229D01*
X203811160Y-110870146D01*
X203661335Y-110899948D01*
X203511511Y-110929750D01*
X203205989Y-110929750D01*
X203056165Y-110899948D01*
X202906340Y-110870146D01*
X202624076Y-110753229D01*
X202370045Y-110583491D01*
X202154009Y-110367455D01*
X201984271Y-110113424D01*
X201867354Y-109831160D01*
X201819428Y-109590218D01*
X201807750Y-109531511D01*
X201807750Y-109225989D01*
X201867354Y-108926341D01*
X201867354Y-108926340D01*
X201984271Y-108644076D01*
X202154009Y-108390045D01*
X202370045Y-108174009D01*
X202624076Y-108004271D01*
X202906340Y-107887354D01*
X203056165Y-107857552D01*
X203205989Y-107827750D01*
X203511511Y-107827750D01*
X203661335Y-107857552D01*
X203661335Y-107857552D01*
G37*
G36*
X222711335Y-107857552D02*
G01*
X222861160Y-107887354D01*
X223143424Y-108004271D01*
X223397455Y-108174009D01*
X223613491Y-108390045D01*
X223783229Y-108644076D01*
X223900146Y-108926340D01*
X223900146Y-108926341D01*
X223959750Y-109225989D01*
X223959750Y-109531511D01*
X223948072Y-109590218D01*
X223900146Y-109831160D01*
X223783229Y-110113424D01*
X223613491Y-110367455D01*
X223397455Y-110583491D01*
X223143424Y-110753229D01*
X222861160Y-110870146D01*
X222711335Y-110899948D01*
X222561511Y-110929750D01*
X222255989Y-110929750D01*
X222106165Y-110899948D01*
X221956340Y-110870146D01*
X221674076Y-110753229D01*
X221420045Y-110583491D01*
X221204009Y-110367455D01*
X221034271Y-110113424D01*
X220917354Y-109831160D01*
X220869428Y-109590218D01*
X220857750Y-109531511D01*
X220857750Y-109225989D01*
X220917354Y-108926341D01*
X220917354Y-108926340D01*
X221034271Y-108644076D01*
X221204009Y-108390045D01*
X221420045Y-108174009D01*
X221674076Y-108004271D01*
X221956340Y-107887354D01*
X222106165Y-107857552D01*
X222255989Y-107827750D01*
X222561511Y-107827750D01*
X222711335Y-107857552D01*
X222711335Y-107857552D01*
G37*
G36*
X241761335Y-107857552D02*
G01*
X241911160Y-107887354D01*
X242193424Y-108004271D01*
X242447455Y-108174009D01*
X242663491Y-108390045D01*
X242833229Y-108644076D01*
X242950146Y-108926340D01*
X242950146Y-108926341D01*
X243009750Y-109225989D01*
X243009750Y-109531511D01*
X242998072Y-109590218D01*
X242950146Y-109831160D01*
X242833229Y-110113424D01*
X242663491Y-110367455D01*
X242447455Y-110583491D01*
X242193424Y-110753229D01*
X241911160Y-110870146D01*
X241761335Y-110899948D01*
X241611511Y-110929750D01*
X241305989Y-110929750D01*
X241156165Y-110899948D01*
X241006340Y-110870146D01*
X240724076Y-110753229D01*
X240470045Y-110583491D01*
X240254009Y-110367455D01*
X240084271Y-110113424D01*
X239967354Y-109831160D01*
X239919428Y-109590218D01*
X239907750Y-109531511D01*
X239907750Y-109225989D01*
X239967354Y-108926341D01*
X239967354Y-108926340D01*
X240084271Y-108644076D01*
X240254009Y-108390045D01*
X240470045Y-108174009D01*
X240724076Y-108004271D01*
X241006340Y-107887354D01*
X241156165Y-107857552D01*
X241305989Y-107827750D01*
X241611511Y-107827750D01*
X241761335Y-107857552D01*
X241761335Y-107857552D01*
G37*
G36*
X220459750Y-110679750D02*
G01*
X217807750Y-110679750D01*
X217807750Y-108077750D01*
X220459750Y-108077750D01*
X220459750Y-110679750D01*
X220459750Y-110679750D01*
G37*
G36*
X239509750Y-110679750D02*
G01*
X236857750Y-110679750D01*
X236857750Y-108077750D01*
X239509750Y-108077750D01*
X239509750Y-110679750D01*
X239509750Y-110679750D01*
G37*
G36*
X201409750Y-110679750D02*
G01*
X198757750Y-110679750D01*
X198757750Y-108077750D01*
X201409750Y-108077750D01*
X201409750Y-110679750D01*
X201409750Y-110679750D01*
G37*
G36*
X235093000Y-110484000D02*
G01*
X233791000Y-110484000D01*
X233791000Y-109482000D01*
X235093000Y-109482000D01*
X235093000Y-110484000D01*
X235093000Y-110484000D01*
G37*
G36*
X216043000Y-110483000D02*
G01*
X214741000Y-110483000D01*
X214741000Y-109481000D01*
X216043000Y-109481000D01*
X216043000Y-110483000D01*
X216043000Y-110483000D01*
G37*
G36*
X254143000Y-110483000D02*
G01*
X252841000Y-110483000D01*
X252841000Y-109481000D01*
X254143000Y-109481000D01*
X254143000Y-110483000D01*
X254143000Y-110483000D01*
G37*
G36*
X176389127Y-107355787D02*
G01*
X176558966Y-107407307D01*
X176715491Y-107490972D01*
X176751229Y-107520302D01*
X176852686Y-107603564D01*
X176935948Y-107705021D01*
X176965278Y-107740759D01*
X177048943Y-107897284D01*
X177100463Y-108067123D01*
X177113500Y-108199492D01*
X177113500Y-109288008D01*
X177100463Y-109420377D01*
X177048943Y-109590216D01*
X176965278Y-109746741D01*
X176935948Y-109782479D01*
X176852686Y-109883936D01*
X176715489Y-109996529D01*
X176558967Y-110080192D01*
X176558965Y-110080193D01*
X176389126Y-110131713D01*
X176212500Y-110149109D01*
X176035873Y-110131713D01*
X175866034Y-110080193D01*
X175709509Y-109996528D01*
X175655782Y-109952435D01*
X175572314Y-109883936D01*
X175459721Y-109746739D01*
X175376058Y-109590217D01*
X175376057Y-109590215D01*
X175324537Y-109420376D01*
X175311500Y-109288007D01*
X175311501Y-108199492D01*
X175324538Y-108067123D01*
X175376058Y-107897284D01*
X175459723Y-107740759D01*
X175489053Y-107705021D01*
X175572315Y-107603564D01*
X175673772Y-107520302D01*
X175709510Y-107490972D01*
X175866035Y-107407307D01*
X176035874Y-107355787D01*
X176212500Y-107338391D01*
X176389127Y-107355787D01*
X176389127Y-107355787D01*
G37*
G36*
X169089127Y-107355787D02*
G01*
X169258966Y-107407307D01*
X169415491Y-107490972D01*
X169451229Y-107520302D01*
X169552686Y-107603564D01*
X169635948Y-107705021D01*
X169665278Y-107740759D01*
X169748943Y-107897284D01*
X169800463Y-108067123D01*
X169813500Y-108199492D01*
X169813500Y-109288008D01*
X169800463Y-109420377D01*
X169748943Y-109590216D01*
X169665278Y-109746741D01*
X169635948Y-109782479D01*
X169552686Y-109883936D01*
X169415489Y-109996529D01*
X169258967Y-110080192D01*
X169258965Y-110080193D01*
X169089126Y-110131713D01*
X168912500Y-110149109D01*
X168735873Y-110131713D01*
X168566034Y-110080193D01*
X168409509Y-109996528D01*
X168355782Y-109952435D01*
X168272314Y-109883936D01*
X168159721Y-109746739D01*
X168076058Y-109590217D01*
X168076057Y-109590215D01*
X168024537Y-109420376D01*
X168011500Y-109288007D01*
X168011501Y-108199492D01*
X168024538Y-108067123D01*
X168076058Y-107897284D01*
X168159723Y-107740759D01*
X168189053Y-107705021D01*
X168272315Y-107603564D01*
X168373772Y-107520302D01*
X168409510Y-107490972D01*
X168566035Y-107407307D01*
X168735874Y-107355787D01*
X168912500Y-107338391D01*
X169089127Y-107355787D01*
X169089127Y-107355787D01*
G37*
G36*
X174463500Y-109919750D02*
G01*
X170661500Y-109919750D01*
X170661500Y-107567750D01*
X174463500Y-107567750D01*
X174463500Y-109919750D01*
X174463500Y-109919750D01*
G37*
G36*
X248111335Y-105317552D02*
G01*
X248261160Y-105347354D01*
X248543424Y-105464271D01*
X248797455Y-105634009D01*
X249013491Y-105850045D01*
X249183229Y-106104076D01*
X249300146Y-106386340D01*
X249359750Y-106685990D01*
X249359750Y-106991510D01*
X249300146Y-107291160D01*
X249183229Y-107573424D01*
X249013491Y-107827455D01*
X248797455Y-108043491D01*
X248543424Y-108213229D01*
X248261160Y-108330146D01*
X248111335Y-108359948D01*
X247961511Y-108389750D01*
X247655989Y-108389750D01*
X247506165Y-108359948D01*
X247356340Y-108330146D01*
X247074076Y-108213229D01*
X246820045Y-108043491D01*
X246604009Y-107827455D01*
X246434271Y-107573424D01*
X246317354Y-107291160D01*
X246257750Y-106991510D01*
X246257750Y-106685990D01*
X246317354Y-106386340D01*
X246434271Y-106104076D01*
X246604009Y-105850045D01*
X246820045Y-105634009D01*
X247074076Y-105464271D01*
X247356340Y-105347354D01*
X247506165Y-105317552D01*
X247655989Y-105287750D01*
X247961511Y-105287750D01*
X248111335Y-105317552D01*
X248111335Y-105317552D01*
G37*
G36*
X229061335Y-105317552D02*
G01*
X229211160Y-105347354D01*
X229493424Y-105464271D01*
X229747455Y-105634009D01*
X229963491Y-105850045D01*
X230133229Y-106104076D01*
X230250146Y-106386340D01*
X230309750Y-106685990D01*
X230309750Y-106991510D01*
X230250146Y-107291160D01*
X230133229Y-107573424D01*
X229963491Y-107827455D01*
X229747455Y-108043491D01*
X229493424Y-108213229D01*
X229211160Y-108330146D01*
X229061335Y-108359948D01*
X228911511Y-108389750D01*
X228605989Y-108389750D01*
X228456165Y-108359948D01*
X228306340Y-108330146D01*
X228024076Y-108213229D01*
X227770045Y-108043491D01*
X227554009Y-107827455D01*
X227384271Y-107573424D01*
X227267354Y-107291160D01*
X227207750Y-106991510D01*
X227207750Y-106685990D01*
X227267354Y-106386340D01*
X227384271Y-106104076D01*
X227554009Y-105850045D01*
X227770045Y-105634009D01*
X228024076Y-105464271D01*
X228306340Y-105347354D01*
X228456165Y-105317552D01*
X228605989Y-105287750D01*
X228911511Y-105287750D01*
X229061335Y-105317552D01*
X229061335Y-105317552D01*
G37*
G36*
X210011335Y-105317552D02*
G01*
X210161160Y-105347354D01*
X210443424Y-105464271D01*
X210697455Y-105634009D01*
X210913491Y-105850045D01*
X211083229Y-106104076D01*
X211200146Y-106386340D01*
X211259750Y-106685990D01*
X211259750Y-106991510D01*
X211200146Y-107291160D01*
X211083229Y-107573424D01*
X210913491Y-107827455D01*
X210697455Y-108043491D01*
X210443424Y-108213229D01*
X210161160Y-108330146D01*
X210011335Y-108359948D01*
X209861511Y-108389750D01*
X209555989Y-108389750D01*
X209406165Y-108359948D01*
X209256340Y-108330146D01*
X208974076Y-108213229D01*
X208720045Y-108043491D01*
X208504009Y-107827455D01*
X208334271Y-107573424D01*
X208217354Y-107291160D01*
X208157750Y-106991510D01*
X208157750Y-106685990D01*
X208217354Y-106386340D01*
X208334271Y-106104076D01*
X208504009Y-105850045D01*
X208720045Y-105634009D01*
X208974076Y-105464271D01*
X209256340Y-105347354D01*
X209406165Y-105317552D01*
X209555989Y-105287750D01*
X209861511Y-105287750D01*
X210011335Y-105317552D01*
X210011335Y-105317552D01*
G37*
G36*
X252436750Y-108139750D02*
G01*
X249784750Y-108139750D01*
X249784750Y-105537750D01*
X252436750Y-105537750D01*
X252436750Y-108139750D01*
X252436750Y-108139750D01*
G37*
G36*
X233386750Y-108139750D02*
G01*
X230734750Y-108139750D01*
X230734750Y-105537750D01*
X233386750Y-105537750D01*
X233386750Y-108139750D01*
X233386750Y-108139750D01*
G37*
G36*
X214336750Y-108139750D02*
G01*
X211684750Y-108139750D01*
X211684750Y-105537750D01*
X214336750Y-105537750D01*
X214336750Y-108139750D01*
X214336750Y-108139750D01*
G37*
G36*
X169089127Y-102855787D02*
G01*
X169258966Y-102907307D01*
X169415491Y-102990972D01*
X169451229Y-103020302D01*
X169552686Y-103103564D01*
X169635948Y-103205021D01*
X169665278Y-103240759D01*
X169748943Y-103397284D01*
X169800463Y-103567123D01*
X169813500Y-103699492D01*
X169813500Y-104788008D01*
X169800463Y-104920377D01*
X169748943Y-105090216D01*
X169665278Y-105246741D01*
X169635948Y-105282479D01*
X169552686Y-105383936D01*
X169415489Y-105496529D01*
X169338370Y-105537750D01*
X169258965Y-105580193D01*
X169089126Y-105631713D01*
X168912500Y-105649109D01*
X168735873Y-105631713D01*
X168566034Y-105580193D01*
X168409509Y-105496528D01*
X168370204Y-105464271D01*
X168272314Y-105383936D01*
X168159721Y-105246739D01*
X168076058Y-105090217D01*
X168076057Y-105090215D01*
X168024537Y-104920376D01*
X168011500Y-104788007D01*
X168011501Y-103699492D01*
X168024538Y-103567123D01*
X168076058Y-103397284D01*
X168159723Y-103240759D01*
X168189053Y-103205021D01*
X168272315Y-103103564D01*
X168373772Y-103020302D01*
X168409510Y-102990972D01*
X168566035Y-102907307D01*
X168735874Y-102855787D01*
X168912500Y-102838391D01*
X169089127Y-102855787D01*
X169089127Y-102855787D01*
G37*
G36*
X176389127Y-102855787D02*
G01*
X176558966Y-102907307D01*
X176715491Y-102990972D01*
X176751229Y-103020302D01*
X176852686Y-103103564D01*
X176935948Y-103205021D01*
X176965278Y-103240759D01*
X177048943Y-103397284D01*
X177100463Y-103567123D01*
X177113500Y-103699492D01*
X177113500Y-104788008D01*
X177100463Y-104920377D01*
X177048943Y-105090216D01*
X176965278Y-105246741D01*
X176935948Y-105282479D01*
X176852686Y-105383936D01*
X176715489Y-105496529D01*
X176638370Y-105537750D01*
X176558965Y-105580193D01*
X176389126Y-105631713D01*
X176212500Y-105649109D01*
X176035873Y-105631713D01*
X175866034Y-105580193D01*
X175709509Y-105496528D01*
X175670204Y-105464271D01*
X175572314Y-105383936D01*
X175459721Y-105246739D01*
X175376058Y-105090217D01*
X175376057Y-105090215D01*
X175324537Y-104920376D01*
X175311500Y-104788007D01*
X175311501Y-103699492D01*
X175324538Y-103567123D01*
X175376058Y-103397284D01*
X175459723Y-103240759D01*
X175489053Y-103205021D01*
X175572315Y-103103564D01*
X175673772Y-103020302D01*
X175709510Y-102990972D01*
X175866035Y-102907307D01*
X176035874Y-102855787D01*
X176212500Y-102838391D01*
X176389127Y-102855787D01*
X176389127Y-102855787D01*
G37*
M02*
